<svg width="278" height="174" viewBox="0 0 278 174" fill="none" xmlns="http://www.w3.org/2000/svg">
<path d="M2.95848 3.38574L5.02806 9.64495H5.1096L7.1753 3.38574H8.75952L5.95607 11.3379H4.17771L1.37815 3.38574H2.95848ZM9.7448 11.3379V5.37378H11.1504V11.3379H9.7448ZM10.4515 4.52731C10.2289 4.52731 10.0373 4.45353 9.87682 4.30598C9.71633 4.15584 9.63608 3.97594 9.63608 3.76626C9.63608 3.554 9.71633 3.37409 9.87682 3.22654C10.0373 3.0764 10.2289 3.00133 10.4515 3.00133C10.6767 3.00133 10.8682 3.0764 11.0262 3.22654C11.1866 3.37409 11.2669 3.554 11.2669 3.76626C11.2669 3.97594 11.1866 4.15584 11.0262 4.30598C10.8682 4.45353 10.6767 4.52731 10.4515 4.52731ZM17.3096 6.95023L16.0283 7.09001C15.992 6.96058 15.9286 6.83892 15.838 6.72502C15.75 6.61112 15.6309 6.51923 15.4808 6.44934C15.3307 6.37944 15.1469 6.3445 14.9294 6.3445C14.6369 6.3445 14.391 6.40792 14.1917 6.53476C13.9949 6.6616 13.8979 6.82598 13.9005 7.02789C13.8979 7.20132 13.9613 7.3424 14.0907 7.45112C14.2227 7.55984 14.4402 7.64915 14.743 7.71904L15.7604 7.93648C16.3247 8.05815 16.744 8.251 17.0184 8.51503C17.2954 8.77907 17.4352 9.12464 17.4378 9.55176C17.4352 9.92711 17.3252 10.2584 17.1077 10.5458C16.8929 10.8305 16.5939 11.0531 16.2108 11.2136C15.8277 11.3741 15.3876 11.4544 14.8906 11.4544C14.1606 11.4544 13.573 11.3017 13.1278 10.9962C12.6825 10.6882 12.4172 10.2597 12.3318 9.71096L13.7024 9.57894C13.7646 9.84816 13.8966 10.0514 14.0985 10.1886C14.3004 10.3258 14.5631 10.3943 14.8867 10.3943C15.2206 10.3943 15.4886 10.3258 15.6905 10.1886C15.895 10.0514 15.9972 9.88181 15.9972 9.6799C15.9972 9.50905 15.9312 9.36797 15.7992 9.25666C15.6698 9.14535 15.4679 9.05993 15.1935 9.00039L14.1761 8.78683C13.6041 8.66776 13.1808 8.46714 12.9064 8.18499C12.632 7.90024 12.4961 7.54043 12.4987 7.10554C12.4961 6.73796 12.5958 6.41957 12.7977 6.15035C13.0022 5.87855 13.2857 5.66888 13.6481 5.52133C14.0131 5.37119 14.4337 5.29612 14.91 5.29612C15.6089 5.29612 16.159 5.44496 16.5602 5.74265C16.9641 6.04034 17.2139 6.44286 17.3096 6.95023ZM21.2372 11.4544C20.6392 11.4544 20.1228 11.3301 19.6879 11.0816C19.2556 10.8305 18.923 10.4759 18.69 10.0177C18.457 9.55694 18.3405 9.01463 18.3405 8.39078C18.3405 7.77728 18.457 7.23886 18.69 6.7755C18.9256 6.30955 19.2543 5.94715 19.6763 5.68829C20.0982 5.42684 20.5939 5.29612 21.1634 5.29612C21.531 5.29612 21.8779 5.35566 22.204 5.47473C22.5328 5.59122 22.8227 5.77242 23.0738 6.01834C23.3275 6.26425 23.5268 6.57747 23.6717 6.95799C23.8167 7.33593 23.8892 7.78634 23.8892 8.30924V8.74024H19.0006V7.79281H22.5418C22.5392 7.5236 22.481 7.28416 22.3671 7.07448C22.2532 6.86222 22.094 6.69525 21.8895 6.57359C21.6876 6.45192 21.452 6.39109 21.1828 6.39109C20.8955 6.39109 20.6431 6.46098 20.4257 6.60077C20.2082 6.73796 20.0387 6.91917 19.917 7.14437C19.7979 7.36699 19.7371 7.61161 19.7345 7.87824V8.70529C19.7345 9.05216 19.7979 9.34985 19.9248 9.59836C20.0516 9.84427 20.2289 10.0332 20.4567 10.1653C20.6845 10.2947 20.9511 10.3594 21.2566 10.3594C21.4611 10.3594 21.6462 10.3309 21.8118 10.274C21.9775 10.2144 22.1212 10.1277 22.2428 10.0138C22.3645 9.89993 22.4564 9.75885 22.5185 9.59059L23.8309 9.73814C23.7481 10.085 23.5902 10.3879 23.3572 10.6467C23.1268 10.903 22.8317 11.1023 22.4719 11.2447C22.1121 11.3845 21.7005 11.4544 21.2372 11.4544ZM27.8526 11.3379V3.38574H32.947V4.59332H29.2932V6.7522H32.5975V7.95978H29.2932V11.3379H27.8526ZM34.1973 11.3379V5.37378H35.6029V11.3379H34.1973ZM34.904 4.52731C34.6813 4.52731 34.4898 4.45353 34.3293 4.30598C34.1688 4.15584 34.0886 3.97594 34.0886 3.76626C34.0886 3.554 34.1688 3.37409 34.3293 3.22654C34.4898 3.0764 34.6813 3.00133 34.904 3.00133C35.1292 3.00133 35.3207 3.0764 35.4786 3.22654C35.6391 3.37409 35.7194 3.554 35.7194 3.76626C35.7194 3.97594 35.6391 4.15584 35.4786 4.30598C35.3207 4.45353 35.1292 4.52731 34.904 4.52731ZM43.6453 3.38574V11.3379H42.364L38.617 5.92126H38.551V11.3379H37.1104V3.38574H38.3995L42.1426 8.80625H42.2125V3.38574H43.6453ZM45.215 11.3379V3.38574H50.3093V4.59332H46.6555V6.7522H49.9599V7.95978H46.6555V11.3379H45.215ZM51.2723 4.59332V3.38574H57.6169V4.59332H55.159V11.3379H53.7301V4.59332H51.2723ZM61.5522 11.3379V3.38574H64.5343C65.1452 3.38574 65.6577 3.49964 66.0719 3.72743C66.4887 3.95523 66.8032 4.26845 67.0154 4.66709C67.2303 5.06314 67.3377 5.51356 67.3377 6.01834C67.3377 6.52829 67.2303 6.98129 67.0154 7.37735C66.8006 7.7734 66.4835 8.08533 66.0641 8.31312C65.6448 8.53833 65.1284 8.65093 64.5149 8.65093H62.5385V7.46665H64.3207C64.6779 7.46665 64.9705 7.40453 65.1982 7.28027C65.426 7.15602 65.5943 6.98517 65.703 6.76773C65.8143 6.55029 65.87 6.30049 65.87 6.01834C65.87 5.73618 65.8143 5.48767 65.703 5.27282C65.5943 5.05797 65.4248 4.891 65.1944 4.77193C64.9666 4.65026 64.6728 4.58943 64.313 4.58943H62.9928V11.3379H61.5522ZM71.0818 11.4544C70.4838 11.4544 69.9674 11.3301 69.5325 11.0816C69.1002 10.8305 68.7676 10.4759 68.5346 10.0177C68.3016 9.55694 68.1852 9.01463 68.1852 8.39078C68.1852 7.77728 68.3016 7.23886 68.5346 6.7755C68.7702 6.30955 69.0989 5.94715 69.5209 5.68829C69.9428 5.42684 70.4385 5.29612 71.008 5.29612C71.3756 5.29612 71.7225 5.35566 72.0486 5.47473C72.3774 5.59122 72.6673 5.77242 72.9184 6.01834C73.1721 6.26425 73.3714 6.57747 73.5164 6.95799C73.6613 7.33593 73.7338 7.78634 73.7338 8.30924V8.74024H68.8453V7.79281H72.3864C72.3839 7.5236 72.3256 7.28416 72.2117 7.07448C72.0978 6.86222 71.9386 6.69525 71.7341 6.57359C71.5322 6.45192 71.2966 6.39109 71.0274 6.39109C70.7401 6.39109 70.4877 6.46098 70.2703 6.60077C70.0528 6.73796 69.8833 6.91917 69.7616 7.14437C69.6425 7.36699 69.5817 7.61161 69.5791 7.87824V8.70529C69.5791 9.05216 69.6425 9.34985 69.7694 9.59836C69.8962 9.84427 70.0735 10.0332 70.3013 10.1653C70.5291 10.2947 70.7958 10.3594 71.1012 10.3594C71.3057 10.3594 71.4908 10.3309 71.6565 10.274C71.8221 10.2144 71.9658 10.1277 72.0875 10.0138C72.2091 9.89993 72.301 9.75885 72.3631 9.59059L73.6756 9.73814C73.5927 10.085 73.4348 10.3879 73.2019 10.6467C72.9715 10.903 72.6764 11.1023 72.3166 11.2447C71.9567 11.3845 71.5452 11.4544 71.0818 11.4544ZM74.9229 11.3379V5.37378H76.2858V6.3678H76.348C76.4567 6.02351 76.6431 5.75818 76.9071 5.5718C77.1737 5.38284 77.4779 5.28835 77.8196 5.28835C77.8972 5.28835 77.9839 5.29224 78.0797 5.3C78.1781 5.30518 78.2596 5.31424 78.3243 5.32718V6.62018C78.2648 6.59947 78.1703 6.58135 78.0409 6.56582C77.9141 6.5477 77.7911 6.53864 77.672 6.53864C77.4158 6.53864 77.1854 6.5943 76.9809 6.70561C76.779 6.81433 76.6198 6.96576 76.5033 7.1599C76.3868 7.35405 76.3285 7.57796 76.3285 7.83164V11.3379H74.9229ZM82.5994 5.37378V6.46098H79.0737V5.37378H82.5994ZM79.9552 11.3379V4.81076C79.9552 4.40953 80.038 4.0756 80.2037 3.80897C80.3719 3.54235 80.5971 3.34303 80.8793 3.21101C81.1614 3.07899 81.4747 3.01298 81.819 3.01298C82.0623 3.01298 82.2784 3.03239 82.4674 3.07122C82.6564 3.11005 82.7961 3.145 82.8867 3.17606L82.6072 4.26327C82.5476 4.24515 82.4726 4.22703 82.382 4.20891C82.2914 4.1882 82.1904 4.17785 82.0791 4.17785C81.8177 4.17785 81.6326 4.24127 81.5239 4.36811C81.4177 4.49236 81.3647 4.67097 81.3647 4.90395V11.3379H79.9552ZM86.0775 11.4544C85.4951 11.4544 84.9903 11.3262 84.5632 11.07C84.1361 10.8137 83.8047 10.4552 83.5692 9.99441C83.3362 9.53364 83.2197 8.99522 83.2197 8.37913C83.2197 7.76305 83.3362 7.22332 83.5692 6.75997C83.8047 6.29661 84.1361 5.93679 84.5632 5.68052C84.9903 5.42425 85.4951 5.29612 86.0775 5.29612C86.6599 5.29612 87.1647 5.42425 87.5918 5.68052C88.0189 5.93679 88.349 6.29661 88.582 6.75997C88.8175 7.22332 88.9353 7.76305 88.9353 8.37913C88.9353 8.99522 88.8175 9.53364 88.582 9.99441C88.349 10.4552 88.0189 10.8137 87.5918 11.07C87.1647 11.3262 86.6599 11.4544 86.0775 11.4544ZM86.0853 10.3283C86.4011 10.3283 86.6651 10.2416 86.8774 10.0682C87.0896 9.89216 87.2475 9.6566 87.3511 9.3615C87.4572 9.0664 87.5103 8.73765 87.5103 8.37525C87.5103 8.01026 87.4572 7.68021 87.3511 7.38511C87.2475 7.08742 87.0896 6.85057 86.8774 6.67454C86.6651 6.49852 86.4011 6.41051 86.0853 6.41051C85.7617 6.41051 85.4925 6.49852 85.2776 6.67454C85.0654 6.85057 84.9062 7.08742 84.8 7.38511C84.6965 7.68021 84.6447 8.01026 84.6447 8.37525C84.6447 8.73765 84.6965 9.0664 84.8 9.3615C84.9062 9.6566 85.0654 9.89216 85.2776 10.0682C85.4925 10.2416 85.7617 10.3283 86.0853 10.3283ZM90.1283 11.3379V5.37378H91.4912V6.3678H91.5533C91.6621 6.02351 91.8484 5.75818 92.1125 5.5718C92.3791 5.38284 92.6833 5.28835 93.025 5.28835C93.1026 5.28835 93.1893 5.29224 93.2851 5.3C93.3835 5.30518 93.465 5.31424 93.5297 5.32718V6.62018C93.4702 6.59947 93.3757 6.58135 93.2463 6.56582C93.1194 6.5477 92.9965 6.53864 92.8774 6.53864C92.6211 6.53864 92.3908 6.5943 92.1863 6.70561C91.9843 6.81433 91.8252 6.96576 91.7087 7.1599C91.5922 7.35405 91.5339 7.57796 91.5339 7.83164V11.3379H90.1283ZM94.4636 11.3379V5.37378H95.8071V6.38721H95.8769C96.0012 6.04552 96.207 5.77889 96.4943 5.58733C96.7817 5.39319 97.1246 5.29612 97.5233 5.29612C97.9271 5.29612 98.2675 5.39448 98.5445 5.59122C98.8241 5.78536 99.0208 6.05069 99.1347 6.38721H99.1968C99.3288 6.05587 99.5514 5.79183 99.8647 5.5951C100.18 5.39578 100.555 5.29612 100.987 5.29612C101.536 5.29612 101.983 5.46955 102.33 5.81642C102.677 6.1633 102.851 6.66937 102.851 7.33463V11.3379H101.441V7.55208C101.441 7.18191 101.343 6.9114 101.146 6.74055C100.949 6.56712 100.709 6.4804 100.424 6.4804C100.085 6.4804 99.8194 6.58653 99.6278 6.7988C99.4388 7.00847 99.3444 7.28157 99.3444 7.61808V11.3379H97.9659V7.49383C97.9659 7.18579 97.8727 6.93987 97.6864 6.75608C97.5026 6.57229 97.2618 6.4804 96.9642 6.4804C96.7622 6.4804 96.5785 6.53217 96.4128 6.63571C96.2471 6.73667 96.1151 6.88034 96.0167 7.06671C95.9184 7.2505 95.8692 7.46536 95.8692 7.71127V11.3379H94.4636ZM105.993 11.4583C105.615 11.4583 105.275 11.391 104.972 11.2563C104.671 11.1192 104.433 10.9172 104.257 10.6506C104.084 10.384 103.997 10.0552 103.997 9.66437C103.997 9.32785 104.059 9.04958 104.183 8.82955C104.308 8.60952 104.477 8.43349 104.692 8.30147C104.907 8.16945 105.149 8.06979 105.418 8.00249C105.69 7.9326 105.971 7.88212 106.261 7.85106C106.61 7.81482 106.894 7.78246 107.111 7.75399C107.329 7.72292 107.486 7.67633 107.585 7.6142C107.686 7.54949 107.736 7.44983 107.736 7.31522V7.29192C107.736 6.99941 107.65 6.77291 107.476 6.61242C107.303 6.45192 107.053 6.37168 106.727 6.37168C106.382 6.37168 106.109 6.44675 105.907 6.59689C105.708 6.74702 105.573 6.92434 105.504 7.12884L104.191 6.94246C104.295 6.58006 104.466 6.27719 104.704 6.03387C104.942 5.78795 105.233 5.60416 105.577 5.4825C105.922 5.35824 106.302 5.29612 106.719 5.29612C107.006 5.29612 107.292 5.32977 107.577 5.39707C107.862 5.46438 108.122 5.57569 108.358 5.731C108.593 5.88373 108.782 6.09211 108.924 6.35615C109.069 6.62018 109.142 6.95023 109.142 7.34628V11.3379H107.791V10.5186H107.744C107.659 10.6843 107.538 10.8396 107.383 10.9845C107.23 11.1269 107.037 11.2421 106.804 11.3301C106.574 11.4155 106.303 11.4583 105.993 11.4583ZM106.358 10.4254C106.64 10.4254 106.885 10.3698 107.092 10.2584C107.299 10.1445 107.458 9.99441 107.569 9.80803C107.683 9.62165 107.74 9.41845 107.74 9.19842V8.49562C107.696 8.53186 107.621 8.56551 107.515 8.59657C107.411 8.62764 107.295 8.65482 107.165 8.67811C107.036 8.70141 106.908 8.72212 106.781 8.74024C106.654 8.75836 106.544 8.77389 106.451 8.78683C106.241 8.81531 106.054 8.8619 105.888 8.92662C105.722 8.99133 105.592 9.08193 105.496 9.19842C105.4 9.31232 105.352 9.45987 105.352 9.64107C105.352 9.89993 105.447 10.0954 105.636 10.2274C105.825 10.3594 106.065 10.4254 106.358 10.4254ZM111.961 7.84329V11.3379H110.555V5.37378H111.899V6.38721H111.969C112.106 6.05328 112.325 5.78795 112.625 5.59122C112.928 5.39448 113.302 5.29612 113.747 5.29612C114.159 5.29612 114.517 5.38413 114.823 5.56015C115.131 5.73618 115.369 5.99116 115.537 6.32508C115.708 6.65901 115.792 7.06413 115.789 7.54043V11.3379H114.384V7.75787C114.384 7.35923 114.28 7.0473 114.073 6.82209C113.869 6.59689 113.585 6.48428 113.223 6.48428C112.977 6.48428 112.758 6.53864 112.567 6.64736C112.378 6.7535 112.229 6.90752 112.12 7.10943C112.014 7.31134 111.961 7.55596 111.961 7.84329ZM119.82 11.4544C119.224 11.4544 118.713 11.3237 118.286 11.0622C117.862 10.8008 117.534 10.4396 117.304 9.97888C117.076 9.51552 116.962 8.98227 116.962 8.37913C116.962 7.7734 117.078 7.23886 117.311 6.7755C117.544 6.30955 117.873 5.94715 118.298 5.68829C118.725 5.42684 119.23 5.29612 119.812 5.29612C120.296 5.29612 120.725 5.38542 121.097 5.56404C121.473 5.74006 121.772 5.98986 121.994 6.31343C122.217 6.63442 122.344 7.00977 122.375 7.43947H121.031C120.977 7.15214 120.847 6.91269 120.643 6.72114C120.441 6.52699 120.171 6.42992 119.831 6.42992C119.544 6.42992 119.292 6.50758 119.074 6.66289C118.857 6.81562 118.687 7.03565 118.566 7.32299C118.447 7.61032 118.387 7.9546 118.387 8.35583C118.387 8.76224 118.447 9.1117 118.566 9.40421C118.685 9.69414 118.852 9.91805 119.067 10.076C119.284 10.2313 119.539 10.3089 119.831 10.3089C120.039 10.3089 120.224 10.2701 120.387 10.1924C120.552 10.1122 120.691 9.997 120.802 9.84686C120.913 9.69672 120.99 9.51423 121.031 9.29937H122.375C122.341 9.72132 122.217 10.0954 122.002 10.4215C121.787 10.7451 121.495 10.9988 121.124 11.1826C120.754 11.3638 120.319 11.4544 119.82 11.4544ZM126.169 11.4544C125.571 11.4544 125.055 11.3301 124.62 11.0816C124.188 10.8305 123.855 10.4759 123.622 10.0177C123.389 9.55694 123.273 9.01463 123.273 8.39078C123.273 7.77728 123.389 7.23886 123.622 6.7755C123.858 6.30955 124.186 5.94715 124.608 5.68829C125.03 5.42684 125.526 5.29612 126.096 5.29612C126.463 5.29612 126.81 5.35566 127.136 5.47473C127.465 5.59122 127.755 5.77242 128.006 6.01834C128.26 6.26425 128.459 6.57747 128.604 6.95799C128.749 7.33593 128.821 7.78634 128.821 8.30924V8.74024H123.933V7.79281H127.474C127.471 7.5236 127.413 7.28416 127.299 7.07448C127.185 6.86222 127.026 6.69525 126.822 6.57359C126.62 6.45192 126.384 6.39109 126.115 6.39109C125.828 6.39109 125.575 6.46098 125.358 6.60077C125.14 6.73796 124.971 6.91917 124.849 7.14437C124.73 7.36699 124.669 7.61161 124.667 7.87824V8.70529C124.667 9.05216 124.73 9.34985 124.857 9.59836C124.984 9.84427 125.161 10.0332 125.389 10.1653C125.617 10.2947 125.883 10.3594 126.189 10.3594C126.393 10.3594 126.578 10.3309 126.744 10.274C126.91 10.2144 127.053 10.1277 127.175 10.0138C127.297 9.89993 127.389 9.75885 127.451 9.59059L128.763 9.73814C128.68 10.085 128.522 10.3879 128.289 10.6467C128.059 10.903 127.764 11.1023 127.404 11.2447C127.044 11.3845 126.633 11.4544 126.169 11.4544Z" fill="white" fill-opacity="0.8"/>
<path d="M1.02545 23.1988H1.88313L3.59851 26.0859H3.67099L5.38636 23.1988H6.24405L4.00923 26.8349V29.3838H3.26026V26.8349L1.02545 23.1988ZM8.34447 29.4804C7.9257 29.4804 7.55826 29.3808 7.24216 29.1814C6.92808 28.9821 6.68245 28.7033 6.50528 28.3449C6.33012 27.9865 6.24254 27.5677 6.24254 27.0886C6.24254 26.6054 6.33012 26.1836 6.50528 25.8232C6.68245 25.4628 6.92808 25.1829 7.24216 24.9836C7.55826 24.7843 7.9257 24.6846 8.34447 24.6846C8.76325 24.6846 9.12968 24.7843 9.44376 24.9836C9.75986 25.1829 10.0055 25.4628 10.1806 25.8232C10.3578 26.1836 10.4464 26.6054 10.4464 27.0886C10.4464 27.5677 10.3578 27.9865 10.1806 28.3449C10.0055 28.7033 9.75986 28.9821 9.44376 29.1814C9.12968 29.3808 8.76325 29.4804 8.34447 29.4804ZM8.34447 28.8402C8.66258 28.8402 8.92432 28.7586 9.12968 28.5956C9.33504 28.4325 9.48705 28.2181 9.5857 27.9523C9.68436 27.6865 9.73368 27.3986 9.73368 27.0886C9.73368 26.7785 9.68436 26.4896 9.5857 26.2218C9.48705 25.954 9.33504 25.7376 9.12968 25.5725C8.92432 25.4074 8.66258 25.3249 8.34447 25.3249C8.02636 25.3249 7.76463 25.4074 7.55927 25.5725C7.35391 25.7376 7.2019 25.954 7.10324 26.2218C7.00459 26.4896 6.95526 26.7785 6.95526 27.0886C6.95526 27.3986 7.00459 27.6865 7.10324 27.9523C7.2019 28.2181 7.35391 28.4325 7.55927 28.5956C7.76463 28.7586 8.02636 28.8402 8.34447 28.8402ZM10.3769 23.1988H11.2346L12.95 26.0859H13.0225L14.7379 23.1988H15.5955L13.3607 26.8349V29.3838H12.6118V26.8349L10.3769 23.1988ZM23.1841 25.1316C23.1177 24.9282 23.0301 24.746 22.9214 24.585C22.8147 24.4219 22.6868 24.283 22.5378 24.1682C22.3909 24.0534 22.2237 23.9659 22.0365 23.9055C21.8493 23.8451 21.6439 23.8149 21.4204 23.8149C21.054 23.8149 20.7208 23.9095 20.4208 24.0987C20.1208 24.288 19.8822 24.5669 19.705 24.9353C19.5279 25.3037 19.4393 25.7557 19.4393 26.2913C19.4393 26.8268 19.5289 27.2788 19.7081 27.6473C19.8873 28.0157 20.1299 28.2946 20.4359 28.4838C20.7419 28.6731 21.0862 28.7677 21.4687 28.7677C21.8231 28.7677 22.1352 28.6922 22.4049 28.5412C22.6767 28.3882 22.8881 28.1728 23.0392 27.8949C23.1922 27.6151 23.2687 27.2859 23.2687 26.9074L23.4982 26.9557H21.6379V26.2913H23.9935V26.9557C23.9935 27.4651 23.8848 27.908 23.6673 28.2845C23.4519 28.661 23.1539 28.9529 22.7734 29.1603C22.3949 29.3657 21.96 29.4683 21.4687 29.4683C20.9211 29.4683 20.4399 29.3395 20.0252 29.0818C19.6124 28.8241 19.2903 28.4576 19.0588 27.9825C18.8292 27.5073 18.7145 26.9436 18.7145 26.2913C18.7145 25.802 18.7799 25.3621 18.9108 24.9715C19.0437 24.5789 19.2309 24.2447 19.4725 23.9689C19.7141 23.6931 20 23.4817 20.3302 23.3347C20.6604 23.1877 21.0238 23.1142 21.4204 23.1142C21.7466 23.1142 22.0506 23.1635 22.3325 23.2622C22.6163 23.3588 22.869 23.4968 23.0905 23.6759C23.314 23.8531 23.5002 24.0655 23.6492 24.3132C23.7982 24.5588 23.9009 24.8316 23.9572 25.1316H23.1841ZM25.1796 29.3838V24.745H25.8682V25.4457H25.9165C26.001 25.2162 26.1541 25.0299 26.3755 24.887C26.597 24.744 26.8466 24.6726 27.1245 24.6726C27.1768 24.6726 27.2423 24.6736 27.3208 24.6756C27.3993 24.6776 27.4587 24.6806 27.499 24.6846V25.4094C27.4748 25.4034 27.4194 25.3943 27.3329 25.3823C27.2483 25.3682 27.1587 25.3611 27.0641 25.3611C26.8386 25.3611 26.6373 25.4084 26.4601 25.5031C26.2849 25.5957 26.146 25.7245 26.0433 25.8896C25.9427 26.0527 25.8923 26.2389 25.8923 26.4483V29.3838H25.1796ZM30.0871 29.4804C29.6684 29.4804 29.3009 29.3808 28.9848 29.1814C28.6707 28.9821 28.4251 28.7033 28.2479 28.3449C28.0728 27.9865 27.9852 27.5677 27.9852 27.0886C27.9852 26.6054 28.0728 26.1836 28.2479 25.8232C28.4251 25.4628 28.6707 25.1829 28.9848 24.9836C29.3009 24.7843 29.6684 24.6846 30.0871 24.6846C30.5059 24.6846 30.8723 24.7843 31.1864 24.9836C31.5025 25.1829 31.7481 25.4628 31.9233 25.8232C32.1005 26.1836 32.1891 26.6054 32.1891 27.0886C32.1891 27.5677 32.1005 27.9865 31.9233 28.3449C31.7481 28.7033 31.5025 28.9821 31.1864 29.1814C30.8723 29.3808 30.5059 29.4804 30.0871 29.4804ZM30.0871 28.8402C30.4052 28.8402 30.667 28.7586 30.8723 28.5956C31.0777 28.4325 31.2297 28.2181 31.3284 27.9523C31.427 27.6865 31.4763 27.3986 31.4763 27.0886C31.4763 26.7785 31.427 26.4896 31.3284 26.2218C31.2297 25.954 31.0777 25.7376 30.8723 25.5725C30.667 25.4074 30.4052 25.3249 30.0871 25.3249C29.769 25.3249 29.5073 25.4074 29.3019 25.5725C29.0966 25.7376 28.9446 25.954 28.8459 26.2218C28.7472 26.4896 28.6979 26.7785 28.6979 27.0886C28.6979 27.3986 28.7472 27.6865 28.8459 27.9523C28.9446 28.2181 29.0966 28.4325 29.3019 28.5956C29.5073 28.7586 29.769 28.8402 30.0871 28.8402ZM34.1702 29.3838L32.7568 24.745H33.5058L34.5084 28.2966H34.5568L35.5473 24.745H36.3084L37.2869 28.2845H37.3352L38.3378 24.745H39.0868L37.6734 29.3838H36.9728L35.9581 25.8202H35.8856L34.8708 29.3838H34.1702ZM42.0464 24.745V25.349H39.6425V24.745H42.0464ZM40.3431 23.6337H41.0559V28.055C41.0559 28.2563 41.0851 28.4073 41.1434 28.508C41.2038 28.6066 41.2803 28.6731 41.373 28.7073C41.4676 28.7395 41.5672 28.7556 41.6719 28.7556C41.7505 28.7556 41.8149 28.7516 41.8652 28.7435C41.9156 28.7335 41.9558 28.7254 41.986 28.7194L42.131 29.3596C42.0827 29.3777 42.0152 29.3959 41.9286 29.414C41.8421 29.4341 41.7323 29.4442 41.5995 29.4442C41.3981 29.4442 41.2008 29.4009 41.0075 29.3143C40.8163 29.2278 40.6572 29.0959 40.5304 28.9187C40.4055 28.7415 40.3431 28.518 40.3431 28.2483V23.6337ZM43.9309 26.5933V29.3838H43.2182V23.1988H43.9309V25.4698H43.9913C44.1 25.2303 44.2631 25.04 44.4806 24.8991C44.7 24.7561 44.992 24.6846 45.3564 24.6846C45.6725 24.6846 45.9493 24.7481 46.1869 24.8749C46.4244 24.9997 46.6087 25.192 46.7395 25.4517C46.8724 25.7094 46.9389 26.0376 46.9389 26.4362V29.3838H46.2261V26.4846C46.2261 26.1161 46.1305 25.8312 45.9392 25.6299C45.75 25.4266 45.4872 25.3249 45.151 25.3249C44.9175 25.3249 44.7081 25.3742 44.5228 25.4729C44.3396 25.5715 44.1947 25.7155 44.088 25.9047C43.9833 26.094 43.9309 26.3235 43.9309 26.5933Z" fill="#5B5E69"/>
<line x1="2.36962" y1="173.463" x2="2.36962" y2="40.43" stroke="#D0D1D3" stroke-opacity="0.1" stroke-width="0.303728" stroke-dasharray="3.04 3.04"/>
<line x1="57.2095" y1="173.463" x2="57.2095" y2="40.43" stroke="#D0D1D3" stroke-opacity="0.1" stroke-width="0.303728" stroke-dasharray="3.04 3.04"/>
<line x1="112.049" y1="173.463" x2="112.049" y2="40.43" stroke="#D0D1D3" stroke-opacity="0.1" stroke-width="0.303728" stroke-dasharray="3.04 3.04"/>
<line x1="167.868" y1="173.463" x2="167.868" y2="40.43" stroke="#D0D1D3" stroke-opacity="0.1" stroke-width="0.303728" stroke-dasharray="3.04 3.04"/>
<line x1="222.708" y1="173.463" x2="222.708" y2="40.43" stroke="#D0D1D3" stroke-opacity="0.1" stroke-width="0.303728" stroke-dasharray="3.04 3.04"/>
<path d="M277.547 173.767V40.43" stroke="#D0D1D3" stroke-opacity="0.1" stroke-width="0.303728" stroke-dasharray="3.04 3.04"/>
<path d="M7.9437 139.99C6.64237 141.947 3.78667 144.17 2.52148 145.037V171.033H277.699V62.2979C275.53 63.4194 271.084 65.9378 270.65 67.0389C270.216 68.14 267.216 74.3289 265.77 77.2857C265.409 77.5406 263.764 79.5492 260.077 85.5443C256.39 91.5394 252.757 94.2617 251.401 94.8734C248.871 95.7911 242.726 95.8522 238.388 88.756C234.05 81.6597 230.074 81.7209 228.628 82.6385C225.592 84.229 221.579 82.2816 219.952 81.1091C211.494 75.2363 205.764 74.3799 203.957 74.6858C201.969 74.8387 197.45 75.8481 195.281 78.6621C193.113 81.4762 189.859 81.0581 188.504 80.4974C187.419 80.2425 184.817 80.9256 183.081 85.6972C181.346 90.4689 178.563 94.7205 177.388 96.2499L168.713 102.979C165.025 105.548 158.501 99.7675 155.699 96.5558C154.976 95.5872 152.88 93.9864 150.277 95.3323C147.674 96.6781 145.939 96.5048 145.397 96.2499C139.758 93.0688 137.264 98.595 136.721 101.756L135.637 104.509C134.824 105.885 132.546 108.118 129.944 106.038C126.69 103.438 123.166 107.261 121.539 108.026C119.913 108.791 118.828 108.179 115.575 107.567C112.972 107.078 112.321 108.587 112.321 109.402C112.05 111.697 110.586 116.101 106.899 115.367C102.29 114.449 105.815 113.991 102.833 111.544C100.447 109.586 97.8622 111.442 96.8681 112.614C95.7837 114.959 92.3677 119.863 87.3792 120.72C81.1437 121.79 80.3303 118.579 77.6192 115.367C75.4503 112.798 72.92 113.889 71.9259 114.755C70.3896 116.591 66.7748 120.781 64.6059 122.861C62.437 124.941 60.2681 124.441 59.4548 123.932C57.1052 121.739 51.6468 116.835 48.6104 114.755C45.5739 112.675 43.0074 113.277 42.1037 113.838L36.1393 119.802C35.6874 120.159 34.2957 120.72 32.3437 120.108C30.3917 119.496 29 120.363 28.5481 120.873C25.5659 125.512 19.2761 135.371 17.9748 137.696C16.6735 140.021 13.8178 139.276 12.5526 138.613C11.5585 138.257 9.24504 138.032 7.9437 139.99Z" fill="url(#paint0_linear_1333_355)" fill-opacity="0.4"/>
<path d="M2.52148 145.519C3.78667 144.648 6.64237 142.412 7.9437 140.443C9.24504 138.474 11.5585 138.7 12.5526 139.059C13.8178 139.725 16.6735 140.474 17.9748 138.136C19.2761 135.797 25.5659 125.881 28.5481 121.214C29 120.702 30.3917 119.83 32.3437 120.445C34.2957 121.061 35.6874 120.497 36.1392 120.138L42.1037 114.138C43.0074 113.574 45.5739 112.969 48.6104 115.061C51.6468 117.153 57.1052 122.086 59.4548 124.291C60.2681 124.804 62.437 125.306 64.6059 123.214C66.7748 121.122 70.3896 116.907 71.9259 115.061C72.92 114.19 75.4503 113.092 77.6192 115.677C80.3303 118.907 81.1437 122.137 87.3792 121.061C92.3677 120.199 95.7837 115.266 96.8681 112.908C97.8622 111.728 100.447 109.862 102.833 111.831C105.815 114.292 102.29 114.754 106.899 115.677C110.586 116.415 112.05 111.985 112.321 109.677C112.321 108.857 112.972 107.339 115.575 107.831C118.828 108.447 119.913 109.062 121.539 108.293C123.166 107.524 126.69 103.678 129.944 106.293C132.546 108.385 134.824 106.139 135.637 104.755L136.721 101.986C137.264 98.8066 139.758 93.2483 145.397 96.4479C145.939 96.7043 147.674 96.8786 150.277 95.5249C152.88 94.1712 154.976 95.7813 155.699 96.7556C158.501 99.986 165.025 105.801 168.713 103.216L177.388 96.4479C178.563 94.9096 181.346 90.6332 183.081 85.8337C184.817 81.0342 187.419 80.3471 188.504 80.6035C189.859 81.1676 193.113 81.588 195.281 78.7576C197.45 75.9271 201.969 74.9118 203.957 74.758C205.764 74.4503 211.494 75.3118 219.952 81.2188C221.579 82.3982 225.592 84.3569 228.628 82.7571C230.074 81.8341 234.05 81.7726 238.388 88.9103C242.726 96.0479 248.871 95.9864 251.401 95.0634C252.757 94.4481 256.39 91.71 260.077 85.6799C263.764 79.6498 265.409 77.6295 265.77 77.3731C267.216 74.3991 270.216 68.1741 270.65 67.0665C271.084 65.959 275.53 63.4259 277.699 62.2979" stroke="#D6B473" stroke-width="0.607456"/>
<path d="M70.9198 29.6711C70.547 29.6711 70.2157 29.6073 69.9258 29.4796C69.6376 29.3519 69.4098 29.1741 69.2424 28.9463C69.075 28.7185 68.9861 28.4553 68.9758 28.1568H69.9491C69.9577 28.3 70.0052 28.4251 70.0915 28.5321C70.1777 28.6374 70.2925 28.7194 70.4357 28.778C70.579 28.8367 70.7395 28.8661 70.9172 28.8661C71.107 28.8661 71.2753 28.8333 71.422 28.7677C71.5687 28.7004 71.6834 28.6072 71.7663 28.4881C71.8491 28.3691 71.8897 28.2319 71.8879 28.0765C71.8897 27.916 71.8482 27.7745 71.7637 27.652C71.6791 27.5295 71.5566 27.4337 71.3961 27.3647C71.2373 27.2956 71.0458 27.2611 70.8214 27.2611H70.3529V26.5208H70.8214C71.0061 26.5208 71.1674 26.4889 71.3055 26.425C71.4453 26.3612 71.5549 26.2714 71.6343 26.1558C71.7136 26.0385 71.7525 25.903 71.7507 25.7494C71.7525 25.5993 71.7188 25.469 71.6498 25.3585C71.5825 25.2463 71.4867 25.1592 71.3625 25.0971C71.2399 25.0349 71.0958 25.0039 70.9302 25.0039C70.7679 25.0039 70.6178 25.0332 70.4797 25.0919C70.3417 25.1506 70.2304 25.2343 70.1458 25.343C70.0613 25.45 70.0164 25.5777 70.0112 25.7261H69.0871C69.094 25.4293 69.1794 25.1687 69.3434 24.9443C69.509 24.7183 69.7299 24.5423 70.006 24.4163C70.2821 24.2886 70.5919 24.2247 70.9353 24.2247C71.2891 24.2247 71.5963 24.2912 71.8569 24.424C72.1192 24.5552 72.322 24.7321 72.4652 24.9547C72.6084 25.1773 72.68 25.4232 72.68 25.6924C72.6818 25.991 72.5938 26.2412 72.416 26.4431C72.24 26.6451 72.0087 26.7771 71.7223 26.8392V26.8806C72.095 26.9324 72.3806 27.0704 72.5791 27.2948C72.7793 27.5174 72.8785 27.7944 72.8768 28.1257C72.8768 28.4225 72.7922 28.6883 72.6231 28.923C72.4557 29.156 72.2245 29.3389 71.9294 29.4718C71.636 29.6047 71.2995 29.6711 70.9198 29.6711ZM73.7653 29.5986V28.9049L75.6058 27.1006C75.7818 26.9229 75.9285 26.765 76.0459 26.6269C76.1632 26.4889 76.2512 26.3551 76.3099 26.2257C76.3686 26.0963 76.3979 25.9582 76.3979 25.8115C76.3979 25.6441 76.3599 25.5009 76.284 25.3818C76.2081 25.261 76.1037 25.1678 75.9708 25.1022C75.8379 25.0367 75.6869 25.0039 75.5178 25.0039C75.3435 25.0039 75.1908 25.0401 75.0596 25.1126C74.9285 25.1834 74.8266 25.2843 74.7542 25.4155C74.6834 25.5466 74.648 25.7028 74.648 25.884H73.7343C73.7343 25.5475 73.811 25.255 73.9646 25.0065C74.1182 24.758 74.3296 24.5655 74.5988 24.4292C74.8698 24.2929 75.1804 24.2247 75.5307 24.2247C75.8862 24.2247 76.1986 24.2912 76.4678 24.424C76.737 24.5569 76.9458 24.739 77.0942 24.9702C77.2444 25.2015 77.3194 25.4655 77.3194 25.7623C77.3194 25.9608 77.2815 26.1558 77.2056 26.3474C77.1296 26.5389 76.9959 26.7512 76.8043 26.9842C76.6145 27.2171 76.3479 27.4993 76.0044 27.8306L75.0907 28.7599V28.7962H77.3997V29.5986H73.7653ZM78.8804 29.6556C78.7233 29.6556 78.5887 29.6004 78.4765 29.4899C78.3644 29.3795 78.3092 29.2449 78.3109 29.0861C78.3092 28.9308 78.3644 28.7979 78.4765 28.6874C78.5887 28.577 78.7233 28.5218 78.8804 28.5218C79.0322 28.5218 79.1643 28.577 79.2764 28.6874C79.3903 28.7979 79.4481 28.9308 79.4499 29.0861C79.4481 29.1914 79.4205 29.2871 79.367 29.3734C79.3153 29.4597 79.2462 29.5287 79.1599 29.5805C79.0754 29.6306 78.9822 29.6556 78.8804 29.6556ZM82.186 29.6711C81.8409 29.6711 81.532 29.6064 81.2593 29.477C80.9866 29.3458 80.77 29.1663 80.6095 28.9385C80.4508 28.7107 80.3662 28.4502 80.3559 28.1568H81.2878C81.305 28.3742 81.3991 28.552 81.5699 28.69C81.7408 28.8264 81.9461 28.8945 82.186 28.8945C82.3741 28.8945 82.5415 28.8514 82.6882 28.7651C82.8349 28.6788 82.9505 28.5589 83.0351 28.4053C83.1196 28.2517 83.161 28.0765 83.1593 27.8798C83.161 27.6796 83.1188 27.5019 83.0325 27.3466C82.9462 27.1912 82.828 27.0696 82.6778 26.9816C82.5277 26.8918 82.3551 26.847 82.1601 26.847C82.0013 26.8452 81.8452 26.8746 81.6916 26.935C81.538 26.9954 81.4163 27.0748 81.3266 27.1731L80.4594 27.0308L80.7364 24.2972H83.8116V25.0997H81.5311L81.3784 26.5053H81.4094C81.5078 26.3896 81.6467 26.2939 81.8262 26.2179C82.0057 26.1403 82.2024 26.1014 82.4164 26.1014C82.7374 26.1014 83.0238 26.1774 83.2758 26.3292C83.5278 26.4794 83.7262 26.6865 83.8712 26.9505C84.0161 27.2145 84.0886 27.5165 84.0886 27.8565C84.0886 28.2068 84.0075 28.5192 83.8453 28.7936C83.6848 29.0662 83.4613 29.2811 83.1748 29.4381C82.8901 29.5935 82.5605 29.6711 82.186 29.6711ZM87.1121 24.2972V29.5986H86.1517V25.2317H86.1207L84.8807 26.0238V25.1437L86.1983 24.2972H87.1121ZM91.2927 28.6046V28.325C91.2927 28.1197 91.3358 27.9307 91.4221 27.7581C91.5101 27.5856 91.6378 27.4467 91.8052 27.3414C91.9726 27.2361 92.1754 27.1835 92.4135 27.1835C92.6586 27.1835 92.8639 27.2361 93.0296 27.3414C93.1953 27.4449 93.3204 27.583 93.405 27.7556C93.4912 27.9281 93.5344 28.118 93.5344 28.325V28.6046C93.5344 28.81 93.4912 28.9989 93.405 29.1715C93.3187 29.3441 93.1918 29.483 93.0244 29.5883C92.8588 29.6935 92.6551 29.7462 92.4135 29.7462C92.1719 29.7462 91.9674 29.6935 91.8 29.5883C91.6326 29.483 91.5058 29.3441 91.4195 29.1715C91.3349 28.9989 91.2927 28.81 91.2927 28.6046ZM91.9683 28.325V28.6046C91.9683 28.7409 92.0011 28.8661 92.0667 28.98C92.1322 29.0939 92.2479 29.1508 92.4135 29.1508C92.5809 29.1508 92.6957 29.0947 92.7578 28.9825C92.8217 28.8687 92.8536 28.7427 92.8536 28.6046V28.325C92.8536 28.187 92.8234 28.061 92.763 27.9471C92.7026 27.8315 92.5861 27.7737 92.4135 27.7737C92.2513 27.7737 92.1365 27.8315 92.0692 27.9471C92.0019 28.061 91.9683 28.187 91.9683 28.325ZM88.5979 25.5708V25.2912C88.5979 25.0841 88.6419 24.8943 88.73 24.7217C88.818 24.5492 88.9457 24.4111 89.1131 24.3076C89.2805 24.2023 89.4832 24.1496 89.7214 24.1496C89.9647 24.1496 90.1692 24.2023 90.3349 24.3076C90.5023 24.4111 90.6283 24.5492 90.7128 24.7217C90.7974 24.8943 90.8397 25.0841 90.8397 25.2912V25.5708C90.8397 25.7779 90.7965 25.9677 90.7102 26.1403C90.6257 26.3111 90.4997 26.4483 90.3323 26.5519C90.1649 26.6554 89.9613 26.7072 89.7214 26.7072C89.4781 26.7072 89.2727 26.6554 89.1053 26.5519C88.9396 26.4483 88.8137 26.3103 88.7274 26.1377C88.6411 25.9651 88.5979 25.7761 88.5979 25.5708ZM89.2787 25.2912V25.5708C89.2787 25.7088 89.3107 25.8348 89.3745 25.9487C89.4401 26.0609 89.5557 26.117 89.7214 26.117C89.8871 26.117 90.001 26.0609 90.0631 25.9487C90.1269 25.8348 90.1589 25.7088 90.1589 25.5708V25.2912C90.1589 25.1532 90.1287 25.0272 90.0683 24.9133C90.0079 24.7977 89.8922 24.7398 89.7214 24.7398C89.5574 24.7398 89.4427 24.7977 89.3771 24.9133C89.3115 25.0289 89.2787 25.1549 89.2787 25.2912ZM88.893 29.5986L92.5378 24.2972H93.1849L89.5402 29.5986H88.893Z" fill="#179942"/>
<circle cx="60.2307" cy="27.0657" r="4.25219" fill="#1A362C"/>
<path d="M60.0879 28.777V25.0664" stroke="#179942" stroke-width="0.53009" stroke-linecap="round" stroke-linejoin="round"/>
<path d="M58.2324 26.9217L60.0877 25.0664L61.9431 26.9217" stroke="#179942" stroke-width="0.53009" stroke-linecap="round" stroke-linejoin="round"/>
<circle cx="204.805" cy="74.4475" r="3.18914" fill="#161A22" stroke="#D6B473" stroke-width="0.911184"/>
<path fill-rule="evenodd" clip-rule="evenodd" d="M204.163 67.7357C204.734 68.3885 205.75 68.3885 206.321 67.7357L210.26 63.2344H200.225L204.163 67.7357Z" fill="white" fill-opacity="0.8"/>
<rect x="188.402" y="45.29" width="32.8026" height="18.2237" rx="2.86719" fill="white" fill-opacity="0.8"/>
<path d="M195.73 56.2589V52.7592H196.426V56.2589H195.73ZM194.329 54.8559V54.1622H197.829V54.8559H194.329ZM201.118 51.848V57.1494H200.316V52.6504H200.285L199.016 53.4788V52.7126L200.339 51.848H201.118ZM202.644 57.1494V56.5696L204.437 54.711C204.629 54.5091 204.787 54.3322 204.911 54.1803C205.037 54.0267 205.131 53.8809 205.193 53.7428C205.255 53.6048 205.286 53.4581 205.286 53.3028C205.286 53.1267 205.245 52.9749 205.162 52.8472C205.079 52.7177 204.966 52.6185 204.823 52.5495C204.68 52.4787 204.519 52.4434 204.339 52.4434C204.149 52.4434 203.984 52.4822 203.842 52.5598C203.701 52.6375 203.592 52.7471 203.516 52.8886C203.44 53.0301 203.402 53.1958 203.402 53.3856H202.638C202.638 53.0629 202.713 52.7807 202.861 52.5391C203.009 52.2975 203.213 52.1103 203.472 51.9774C203.731 51.8428 204.025 51.7755 204.355 51.7755C204.688 51.7755 204.981 51.8419 205.235 51.9748C205.49 52.106 205.689 52.2855 205.833 52.5132C205.976 52.7393 206.048 52.9947 206.048 53.2795C206.048 53.4762 206.01 53.6686 205.936 53.8567C205.864 54.0448 205.737 54.2545 205.556 54.4858C205.374 54.7153 205.123 54.994 204.8 55.3219L203.746 56.4246V56.4634H206.133V57.1494H202.644ZM209.972 56.1554V55.8758C209.972 55.6756 210.014 55.4927 210.097 55.327C210.181 55.1597 210.304 55.0259 210.464 54.9258C210.626 54.824 210.822 54.7731 211.052 54.7731C211.286 54.7731 211.483 54.8231 211.642 54.9232C211.801 55.0233 211.921 55.1571 212.002 55.3245C212.085 55.4919 212.126 55.6756 212.126 55.8758V56.1554C212.126 56.3556 212.085 56.5394 212.002 56.7068C211.919 56.8724 211.797 57.0062 211.637 57.108C211.478 57.2081 211.283 57.2581 211.052 57.2581C210.819 57.2581 210.622 57.2081 210.462 57.108C210.301 57.0062 210.179 56.8724 210.097 56.7068C210.014 56.5394 209.972 56.3556 209.972 56.1554ZM210.575 55.8758V56.1554C210.575 56.3038 210.611 56.4384 210.682 56.5592C210.752 56.68 210.876 56.7404 211.052 56.7404C211.226 56.7404 211.348 56.68 211.417 56.5592C211.486 56.4384 211.52 56.3038 211.52 56.1554V55.8758C211.52 55.7274 211.487 55.5928 211.419 55.472C211.354 55.3512 211.231 55.2908 211.052 55.2908C210.879 55.2908 210.757 55.3512 210.684 55.472C210.612 55.5928 210.575 55.7274 210.575 55.8758ZM207.306 53.1216V52.842C207.306 52.6418 207.348 52.458 207.43 52.2906C207.515 52.1232 207.637 51.9895 207.798 51.8894C207.96 51.7893 208.156 51.7393 208.386 51.7393C208.62 51.7393 208.817 51.7893 208.976 51.8894C209.135 51.9895 209.254 52.1232 209.336 52.2906C209.417 52.458 209.457 52.6418 209.457 52.842V53.1216C209.457 53.3218 209.416 53.5055 209.333 53.6729C209.252 53.8386 209.131 53.9723 208.971 54.0742C208.812 54.1743 208.617 54.2243 208.386 54.2243C208.151 54.2243 207.953 54.1743 207.793 54.0742C207.634 53.9723 207.513 53.8386 207.43 53.6729C207.348 53.5055 207.306 53.3218 207.306 53.1216ZM207.912 52.842V53.1216C207.912 53.27 207.946 53.4046 208.015 53.5254C208.086 53.6462 208.21 53.7066 208.386 53.7066C208.558 53.7066 208.679 53.6462 208.748 53.5254C208.819 53.4046 208.854 53.27 208.854 53.1216V52.842C208.854 52.6936 208.82 52.559 208.753 52.4382C208.686 52.3174 208.563 52.257 208.386 52.257C208.213 52.257 208.09 52.3174 208.018 52.4382C207.947 52.559 207.912 52.6936 207.912 52.842ZM207.552 57.1494L211.197 51.848H211.815L208.171 57.1494H207.552Z" fill="#161A22"/>
<defs>
<linearGradient id="paint0_linear_1333_355" x1="140.11" y1="62.2979" x2="140.11" y2="171.033" gradientUnits="userSpaceOnUse">
<stop stop-color="#D6B473"/>
<stop offset="1" stop-color="#161A22" stop-opacity="0"/>
</linearGradient>
</defs>
</svg>
