<svg width="48" height="48" viewBox="0 0 48 48" fill="none" xmlns="http://www.w3.org/2000/svg">
<g clip-path="url(#clip0_1404_212)">
<path d="M44.0399 33.888C43.2583 33.3969 42.3641 33.1139 41.4423 33.0658C40.5205 33.0177 39.6017 33.2062 38.7733 33.6134C37.119 34.4372 34.326 35.9264 32.2743 37.0337C32.2096 37.0694 32.1404 37.0985 32.0734 37.1342C32.0723 36.9702 32.0574 36.8067 32.0287 36.6452C31.9672 36.2824 31.834 35.9354 31.637 35.6246C31.44 35.3137 31.1831 35.0452 30.8812 34.8346C30.5784 34.6199 30.236 34.4675 29.8738 34.3863C29.5116 34.305 29.1369 34.2966 28.7714 34.3613L25.7195 34.8927C24.5679 33.8679 23.2 33.1162 21.7176 32.6933C20.2353 32.2704 18.6766 32.1873 17.1577 32.4503L12.6724 33.2272C12.6023 33.2408 12.5345 33.2649 12.4715 33.2986C12.3468 33.1721 12.2148 33.0528 12.0764 32.9414C11.6023 32.5672 11.0546 32.297 10.4692 32.1486C9.88372 32.0001 9.27354 31.9766 8.6784 32.0797L3.52343 32.9727C3.34847 33.0032 3.1928 33.102 3.09064 33.2472C2.98849 33.3925 2.94822 33.5724 2.97868 33.7474L5.38091 47.4464C5.40818 47.6013 5.48913 47.7417 5.60955 47.8429C5.72997 47.9442 5.88219 47.9998 6.03952 48C6.07815 48.0033 6.11698 48.0033 6.15561 48L10.5783 47.2298C11.1903 47.125 11.7718 46.8871 12.2818 46.533C12.7917 46.1789 13.2178 45.7171 13.5297 45.1803C13.5473 45.1865 13.5652 45.1918 13.5833 45.1959L21.8438 46.5712C22.8355 46.7356 23.8391 46.8185 24.8444 46.819C28.4806 46.8196 32.0316 45.7182 35.0293 43.6599L44.1002 37.4579C44.395 37.2597 44.6355 36.9909 44.7997 36.676C44.964 36.3611 45.0468 36.01 45.0406 35.6548C45.0344 35.2997 44.9393 34.9517 44.7642 34.6427C44.589 34.3337 44.3392 34.0735 44.0377 33.8858L44.0399 33.888ZM10.3484 45.9014L6.58426 46.5556L4.41422 34.1783L8.90836 33.3991C9.31767 33.3278 9.73743 33.3436 10.1402 33.4455C10.543 33.5475 10.9197 33.7333 11.2458 33.9907C11.5703 34.2446 11.8375 34.5642 12.0299 34.9286C12.2223 35.2929 12.3355 35.6938 12.3621 36.105L12.7684 42.8652C12.8088 43.5802 12.5843 44.2851 12.1379 44.8452C11.6915 45.4053 11.0544 45.7813 10.3484 45.9014V45.9014ZM43.3478 36.3416L34.2769 42.5459C30.7092 44.9926 26.3309 45.9587 22.0648 45.2406L14.0276 43.9011C14.1045 43.5343 14.1331 43.159 14.1124 42.7848L13.6972 36.0335C13.6622 35.498 13.5266 34.9739 13.2976 34.4886L17.3943 33.7786C18.7635 33.5418 20.1692 33.6286 21.4989 34.0321C22.8286 34.4357 24.0454 35.1448 25.052 36.1027C25.128 36.175 25.2199 36.2284 25.3204 36.2587C25.4208 36.2889 25.5269 36.2952 25.6302 36.2769L29.0081 35.6897C29.2013 35.6552 29.3994 35.6593 29.591 35.7018C29.7826 35.7444 29.9639 35.8245 30.1244 35.9375C30.4402 36.1594 30.6553 36.4974 30.7227 36.8774C30.7372 36.9653 30.7454 37.0541 30.7472 37.1431C30.7478 37.3765 30.6911 37.6065 30.582 37.8129C29.182 38.3263 27.7041 38.5952 26.2129 38.6077L19.8501 38.6568C19.6725 38.6568 19.5021 38.7273 19.3765 38.853C19.2509 38.9786 19.1804 39.1489 19.1804 39.3265C19.1804 39.5042 19.2509 39.6745 19.3765 39.8001C19.5021 39.9258 19.6725 39.9963 19.8501 39.9963L26.2129 39.9472C28.5517 39.9288 30.8507 39.3402 32.9106 38.2326C34.9534 37.1319 37.7307 35.6473 39.3694 34.8346C39.9911 34.5285 40.6809 34.3866 41.373 34.4225C42.0652 34.4585 42.7366 34.6711 43.3232 35.04C43.4347 35.1095 43.527 35.2058 43.5918 35.32C43.6567 35.4342 43.6919 35.5629 43.6943 35.6942C43.6968 35.8255 43.6663 35.9554 43.6058 36.072C43.5453 36.1885 43.4566 36.2881 43.3478 36.3617V36.3416Z" fill="#D6B473"/>
<path d="M43.8007 29.7756L41.9991 24.2389C41.9552 24.1042 41.8697 23.987 41.755 23.904C41.6403 23.8209 41.5022 23.7764 41.3605 23.7768H37.7304L36.0783 18.7021C36.0345 18.5679 35.9494 18.4509 35.8351 18.3679C35.7209 18.2849 35.5833 18.2401 35.442 18.24H31.7985L30.1397 13.1721C30.0958 13.0375 30.0104 12.9202 29.8956 12.8372C29.7809 12.7541 29.6428 12.7096 29.5012 12.71H21.2631C21.1218 12.7101 20.9842 12.7548 20.8699 12.8378C20.7557 12.9208 20.6706 13.0378 20.6268 13.1721L18.9769 18.24H15.3378C15.1966 18.2401 15.059 18.2849 14.9447 18.3679C14.8305 18.4509 14.7453 18.5679 14.7016 18.7021L13.0472 23.7768H9.41263C9.27101 23.7764 9.13292 23.8209 9.0182 23.904C8.90348 23.987 8.81802 24.1042 8.77412 24.2389L6.97245 29.7756C6.93968 29.8761 6.93116 29.983 6.9476 30.0874C6.96404 30.1918 7.00496 30.2909 7.06702 30.3765C7.12908 30.462 7.21052 30.5317 7.30467 30.5798C7.39882 30.6279 7.50301 30.653 7.60873 30.653H43.1644C43.2702 30.653 43.3744 30.6279 43.4685 30.5798C43.5627 30.5317 43.6441 30.462 43.7062 30.3765C43.7682 30.2909 43.8091 30.1918 43.8256 30.0874C43.842 29.983 43.8335 29.8761 43.8007 29.7756V29.7756ZM34.9486 19.5795L36.315 23.7768H26.3086L27.6839 19.5795H34.9486ZM21.7498 14.0428H29.0234L30.3898 18.24H20.3834L21.7498 14.0428ZM26.2685 19.5795L25.3754 22.2832L24.5047 19.5795H26.2685ZM15.8245 19.5795H23.096L24.4645 23.7768H14.456L15.8245 19.5795ZM8.53077 29.3135L9.8971 25.1163H17.1708L18.5304 29.3135H8.53077ZM19.4703 27.8199L18.5773 25.1163H20.3388L19.4703 27.8199ZM20.3924 29.3135L21.7587 25.1163H29.0234L30.3898 29.3135H20.3924ZM31.3319 27.8199L30.4523 25.1163H32.2138L31.3319 27.8199ZM32.2562 29.3135L33.6225 25.1163H40.8939L42.2625 29.3135H32.2562Z" fill="#D6B473"/>
<path d="M16.7108 11.7946C16.799 11.7969 16.8869 11.7817 16.9693 11.7499C17.0516 11.7181 17.1269 11.6703 17.1908 11.6093L23.6339 5.1974L26.5675 8.12428C26.693 8.24902 26.8627 8.31904 27.0397 8.31904C27.2166 8.31904 27.3864 8.24902 27.5119 8.12428L33.3813 2.28167V3.42474C33.3813 3.60238 33.4518 3.77274 33.5774 3.89834C33.703 4.02395 33.8734 4.09451 34.051 4.09451C34.2287 4.09451 34.399 4.02395 34.5246 3.89834C34.6502 3.77274 34.7208 3.60238 34.7208 3.42474V0.669767C34.7208 0.492134 34.6502 0.321776 34.5246 0.19617C34.399 0.0705646 34.2287 0 34.051 0L31.2938 0C31.1162 0 30.9458 0.0705646 30.8202 0.19617C30.6946 0.321776 30.6241 0.492134 30.6241 0.669767C30.6241 0.847401 30.6946 1.01776 30.8202 1.14336C30.9458 1.26897 31.1162 1.33953 31.2938 1.33953H32.4391L27.0475 6.69767L24.0983 3.76856C23.9728 3.64381 23.803 3.57379 23.6261 3.57379C23.4492 3.57379 23.2794 3.64381 23.1539 3.76856L16.233 10.6515C16.1076 10.7771 16.0371 10.9473 16.0371 11.1248C16.0371 11.3023 16.1076 11.4726 16.233 11.5981C16.2956 11.6609 16.3701 11.7106 16.4522 11.7443C16.5342 11.778 16.6221 11.7951 16.7108 11.7946V11.7946Z" fill="#D6B473"/>
</g>
<defs>
<clipPath id="clip0_1404_212">
<rect width="48" height="48" fill="white"/>
</clipPath>
</defs>
</svg>
