<svg width="233" height="153" viewBox="0 0 233 153" fill="none" xmlns="http://www.w3.org/2000/svg">
<path d="M76.2794 152.498C34.5366 152.498 0.699421 118.661 0.699421 76.9179C0.699421 35.175 34.5366 1.33789 76.2794 1.33789C118.022 1.33789 151.859 35.175 151.859 76.9179C151.859 118.661 118.022 152.498 76.2794 152.498Z" stroke="url(#paint0_linear_1333_324)" stroke-width="0.868723" stroke-miterlimit="0"/>
<g opacity="0.3">
<path d="M76.2788 134.096C44.6992 134.096 19.1005 108.497 19.1005 76.9175C19.1005 45.338 44.6992 19.7393 76.2788 19.7393C107.858 19.7393 133.457 45.338 133.457 76.9175C133.457 108.497 107.858 134.096 76.2788 134.096Z" stroke="url(#paint1_linear_1333_324)" stroke-width="1.81997" stroke-miterlimit="0"/>
</g>
<g opacity="0.7">
<path d="M76.2801 122.895C50.8866 122.895 30.3024 102.311 30.3024 76.9171C30.3024 51.5236 50.8866 30.9395 76.2801 30.9395C101.674 30.9395 122.258 51.5236 122.258 76.9171C122.258 102.311 101.674 122.895 76.2801 122.895Z" stroke="url(#paint2_linear_1333_324)" stroke-width="1.9025" stroke-miterlimit="0"/>
</g>
<path d="M103.228 77.2995C103.228 92.3858 90.9981 104.616 75.9119 104.616C60.8256 104.616 48.5957 92.3858 48.5957 77.2995C48.5957 62.2133 60.8256 49.9834 75.9119 49.9834C90.9981 49.9834 103.228 62.2133 103.228 77.2995ZM50.6017 77.2995C50.6017 91.278 61.9334 102.61 75.9119 102.61C89.8903 102.61 101.222 91.278 101.222 77.2995C101.222 63.3211 89.8903 51.9894 75.9119 51.9894C61.9334 51.9894 50.6017 63.3211 50.6017 77.2995Z" fill="url(#paint3_linear_1333_324)"/>
<path fill-rule="evenodd" clip-rule="evenodd" d="M75.9124 97.1313C86.8654 97.1313 95.7446 88.2521 95.7446 77.2991C95.7446 66.346 86.8654 57.4668 75.9124 57.4668C64.9593 57.4668 56.0801 66.346 56.0801 77.2991C56.0801 88.2521 64.9593 97.1313 75.9124 97.1313ZM67.2463 82.6928L70.6949 73.2901H68.6877L66.1148 80.7664L63.5283 73.2901H61.5077L64.9563 82.6928H67.2463ZM73.7116 82.6928V73.2901H71.8256V82.6928H73.7116ZM77.0432 82.4503C77.5731 82.6748 78.1658 82.7871 78.8214 82.7871C79.5129 82.7871 80.1101 82.6614 80.613 82.4099C81.1159 82.1495 81.4976 81.8037 81.7581 81.3726C82.0185 80.9416 82.1487 80.4746 82.1487 79.9717C82.1487 79.3879 82.0095 78.9164 81.7311 78.5572C81.4527 78.198 81.1204 77.9286 80.7343 77.7489C80.3481 77.5693 79.8497 77.3897 79.239 77.2101C78.79 77.0754 78.4397 76.9587 78.1882 76.8599C77.9458 76.7521 77.7392 76.6174 77.5686 76.4557C77.4069 76.2851 77.3261 76.0741 77.3261 75.8226C77.3261 75.4634 77.4339 75.1895 77.6494 75.0009C77.8739 74.8123 78.1703 74.718 78.5385 74.718C78.9606 74.718 79.2974 74.8257 79.5488 75.0413C79.8093 75.2478 79.9485 75.5128 79.9664 75.8361H82.0409C81.9781 74.9919 81.6413 74.3363 81.0306 73.8693C80.4289 73.3933 79.6431 73.1553 78.6732 73.1553C78.0266 73.1553 77.4518 73.2676 76.9489 73.4921C76.446 73.7077 76.0553 74.022 75.7769 74.4351C75.4985 74.8482 75.3593 75.3332 75.3593 75.89C75.3593 76.4827 75.4941 76.9587 75.7635 77.3179C76.0419 77.6681 76.3697 77.9331 76.7469 78.1127C77.133 78.2833 77.6314 78.4584 78.2421 78.638C78.6912 78.7638 79.0414 78.8805 79.2929 78.9883C79.5533 79.0871 79.7688 79.2263 79.9395 79.4059C80.1101 79.5855 80.1954 79.8145 80.1954 80.0929C80.1954 80.4342 80.0697 80.7126 79.8182 80.9281C79.5668 81.1347 79.221 81.2379 78.781 81.2379C78.3499 81.2379 78.0086 81.1257 77.7572 80.9012C77.5147 80.6766 77.38 80.3713 77.353 79.9851H75.3324C75.3414 80.5599 75.4985 81.0583 75.8039 81.4804C76.1092 81.9025 76.5223 82.2258 77.0432 82.4503ZM85.6697 77.1697V74.8123H89.2395V73.2766H83.7838V82.6928H89.2395V81.1571H85.6697V78.665H88.8354V77.1697H85.6697Z" fill="url(#paint4_linear_1333_324)"/>
<path d="M142.893 112.837H176.699L193.113 139.042H200.837M148.131 100.219H188.285L197.941 116.719H216.285M151.125 88.5725H225.964M151.873 76.0955H232.699M151.125 65.279H226.906M148.88 54.6027H188.285L199.872 35.1914H227.871M144.015 42.956H177.665L194.078 14.8096H215.32" stroke="url(#paint5_linear_1333_324)" stroke-opacity="0.5" stroke-width="0.748388"/>
<circle cx="215.861" cy="15.1835" r="2.24516" fill="#11141C" stroke="#D6B16E" stroke-width="0.748388"/>
<circle cx="227.086" cy="35.3895" r="2.24516" fill="#11141C" stroke="#D6B16E" stroke-width="0.748388"/>
<circle cx="227.086" cy="64.577" r="2.24516" fill="#11141C" stroke="#D6B16E" stroke-width="0.748388"/>
<circle cx="227.086" cy="75.8026" r="2.24516" fill="#11141C" stroke="#D6B16E" stroke-width="0.748388"/>
<circle cx="227.086" cy="88.5253" r="2.24516" fill="#11141C" stroke="#D6B16E" stroke-width="0.748388"/>
<circle cx="215.861" cy="116.964" r="2.24516" fill="#11141C" stroke="#D6B16E" stroke-width="0.748388"/>
<circle cx="202.391" cy="139.416" r="2.24516" fill="#11141C" stroke="#D6B16E" stroke-width="0.748388"/>
<defs>
<linearGradient id="paint0_linear_1333_324" x1="151.859" y1="152.498" x2="0.699417" y2="152.498" gradientUnits="userSpaceOnUse">
<stop stop-color="white"/>
<stop offset="1" stop-color="#D6B473" stop-opacity="0"/>
</linearGradient>
<linearGradient id="paint1_linear_1333_324" x1="133.457" y1="134.096" x2="19.1005" y2="134.096" gradientUnits="userSpaceOnUse">
<stop stop-color="white"/>
<stop offset="1" stop-color="#D6B473" stop-opacity="0"/>
</linearGradient>
<linearGradient id="paint2_linear_1333_324" x1="122.258" y1="122.895" x2="30.3024" y2="122.895" gradientUnits="userSpaceOnUse">
<stop stop-color="white"/>
<stop offset="1" stop-color="#D6B473" stop-opacity="0"/>
</linearGradient>
<linearGradient id="paint3_linear_1333_324" x1="60.888" y1="49.9834" x2="102.289" y2="62.6558" gradientUnits="userSpaceOnUse">
<stop stop-color="#D6B473"/>
<stop offset="1" stop-color="#D6A254"/>
</linearGradient>
<linearGradient id="paint4_linear_1333_324" x1="65.0046" y1="57.4668" x2="95.063" y2="66.6673" gradientUnits="userSpaceOnUse">
<stop stop-color="#D6B473"/>
<stop offset="1" stop-color="#D6A254"/>
</linearGradient>
<linearGradient id="paint5_linear_1333_324" x1="151.873" y1="76.9257" x2="226.712" y2="76.9257" gradientUnits="userSpaceOnUse">
<stop stop-color="#F7F7F5"/>
<stop offset="1" stop-color="#F5F4F2" stop-opacity="0"/>
</linearGradient>
</defs>
</svg>
