<svg width="49" height="48" viewBox="0 0 49 48" fill="none" xmlns="http://www.w3.org/2000/svg">
<path d="M13.9004 42H5.65039V3H35.6504V18.75C35.6504 18.9489 35.7294 19.1397 35.8701 19.2803C36.0107 19.421 36.2015 19.5 36.4004 19.5C36.5993 19.5 36.7901 19.421 36.9307 19.2803C37.0714 19.1397 37.1504 18.9489 37.1504 18.75V2.25C37.1504 2.05109 37.0714 1.86032 36.9307 1.71967C36.7901 1.57902 36.5993 1.5 36.4004 1.5H4.90039C4.70148 1.5 4.51071 1.57902 4.37006 1.71967C4.22941 1.86032 4.15039 2.05109 4.15039 2.25V42.75C4.15039 42.9489 4.22941 43.1397 4.37006 43.2803C4.51071 43.421 4.70148 43.5 4.90039 43.5H13.9004C14.0993 43.5 14.2901 43.421 14.4307 43.2803C14.5714 43.1397 14.6504 42.9489 14.6504 42.75C14.6504 42.5511 14.5714 42.3603 14.4307 42.2197C14.2901 42.079 14.0993 42 13.9004 42Z" fill="#D6B473"/>
<path d="M42.0011 28.3855L42.0146 28.3712C42.1552 28.2306 42.2342 28.0398 42.2342 27.841C42.2342 27.6421 42.1552 27.4513 42.0146 27.3107L40.4238 25.72L41.4843 24.6587C41.6249 24.5181 41.7039 24.3273 41.7039 24.1285C41.7039 23.9296 41.6249 23.7388 41.4843 23.5982L38.3021 20.4167C38.1588 20.2812 37.969 20.2057 37.7718 20.2057C37.5746 20.2057 37.3849 20.2812 37.2416 20.4167L36.1811 21.4772L34.5903 19.8865C34.4497 19.7458 34.2589 19.6669 34.0601 19.6669C33.8612 19.6669 33.6705 19.7458 33.5298 19.8865L33.5156 19.9007C32.3872 18.8368 31.0205 18.0586 29.5297 17.6311C28.0389 17.2037 26.4675 17.1394 24.9468 17.4437L21.7151 18.0902C21.553 18.1227 21.4062 18.2079 21.2975 18.3324C21.1888 18.457 21.1243 18.614 21.114 18.779C21.1038 18.944 21.1483 19.1078 21.2407 19.2448C21.3331 19.3819 21.4682 19.4846 21.6251 19.537L24.3828 20.4565C25.5973 20.8626 26.7012 21.5447 27.6078 22.4492L29.2878 24.1292C29.1472 24.2698 29.0682 24.4606 29.0682 24.6595C29.0682 24.8583 29.1472 25.0491 29.2878 25.1897L30.8786 26.7805L16.7411 40.918C16.4545 41.1947 16.226 41.5257 16.0688 41.8917C15.9115 42.2577 15.8288 42.6514 15.8253 43.0497C15.8218 43.4481 15.8978 43.8431 16.0486 44.2118C16.1994 44.5805 16.4222 44.9155 16.7039 45.1971C16.9856 45.4788 17.3205 45.7016 17.6892 45.8524C18.0579 46.0033 18.4529 46.0792 18.8513 46.0757C19.2496 46.0722 19.6433 45.9895 20.0093 45.8323C20.3753 45.675 20.7063 45.4465 20.9831 45.16L35.1206 31.0232L36.7113 32.614C36.852 32.7546 37.0427 32.8335 37.2416 32.8335C37.4404 32.8335 37.6312 32.7546 37.7718 32.614V32.614L39.4518 34.294C40.3565 35.2006 41.0388 36.3044 41.4453 37.519L42.3641 40.2752C42.4138 40.4245 42.5092 40.5543 42.6368 40.6464C42.7644 40.7385 42.9177 40.7881 43.0751 40.7882H43.1223C43.2871 40.7779 43.4439 40.7136 43.5684 40.6051C43.6929 40.4966 43.7781 40.3501 43.8108 40.1882L44.4573 36.9557C44.7612 35.4348 44.6968 33.8633 44.2695 32.3724C43.8422 30.8815 43.0644 29.5145 42.0011 28.3855V28.3855ZM24.8568 19.033L24.7818 19.0075L25.2446 18.9145C26.5238 18.6575 27.8459 18.7082 29.1017 19.0624C30.3575 19.4165 31.5113 20.064 32.4678 20.9515L30.3513 23.068L28.6713 21.3887C27.599 20.3192 26.2933 19.5128 24.8568 19.033V19.033ZM37.7718 22.0075L39.8936 24.1285L39.3633 24.6595L37.2416 22.5377L37.7718 22.0075ZM19.9226 44.1002C19.6369 44.3731 19.2571 44.5253 18.8621 44.5253C18.467 44.5253 18.0872 44.3731 17.8016 44.1002C17.5204 43.8189 17.3624 43.4374 17.3624 43.0397C17.3624 42.642 17.5204 42.2605 17.8016 41.9792L31.9383 27.841L34.0601 29.9627L19.9226 44.1002ZM30.8778 24.6602L34.0601 21.478L40.4238 27.8417L37.2416 31.024L30.8778 24.6602ZM42.9866 36.6602L42.8936 37.1237L42.8681 37.0487C42.3881 35.6132 41.5817 34.3085 40.5123 33.2372L38.8323 31.5572L40.9496 29.4407C41.8366 30.3966 42.4839 31.5495 42.8381 32.8046C43.1922 34.0596 43.2431 35.3809 42.9866 36.6595V36.6602Z" fill="#D6B473"/>
<path d="M36.4004 43.5H26.0879C25.889 43.5 25.6982 43.421 25.5576 43.2803C25.4169 43.1397 25.3379 42.9489 25.3379 42.75C25.3379 42.5511 25.4169 42.3603 25.5576 42.2197C25.6982 42.079 25.889 42 26.0879 42H35.6504V34.5C35.6504 34.3011 35.7294 34.1103 35.8701 33.9697C36.0107 33.829 36.2015 33.75 36.4004 33.75C36.5993 33.75 36.7901 33.829 36.9307 33.9697C37.0714 34.1103 37.1504 34.3011 37.1504 34.5V42.75C37.1504 42.9489 37.0714 43.1397 36.9307 43.2803C36.7901 43.421 36.5993 43.5 36.4004 43.5Z" fill="#D6B473"/>
<path d="M33.4004 14.25H31.9004V7.5C31.9004 7.30109 31.8214 7.11032 31.6807 6.96967C31.5401 6.82902 31.3493 6.75 31.1504 6.75H28.1504C27.9515 6.75 27.7607 6.82902 27.6201 6.96967C27.4794 7.11032 27.4004 7.30109 27.4004 7.5V14.25H25.9004V5.25C25.9004 5.05109 25.8214 4.86032 25.6807 4.71967C25.5401 4.57902 25.3493 4.5 25.1504 4.5H22.1504C21.9515 4.5 21.7607 4.57902 21.6201 4.71967C21.4794 4.86032 21.4004 5.05109 21.4004 5.25V14.25H19.9004V7.5C19.9004 7.30109 19.8214 7.11032 19.6807 6.96967C19.5401 6.82902 19.3493 6.75 19.1504 6.75H16.1504C15.9515 6.75 15.7607 6.82902 15.6201 6.96967C15.4794 7.11032 15.4004 7.30109 15.4004 7.5V14.25H13.9004V10.5C13.9004 10.3011 13.8214 10.1103 13.6807 9.96967C13.5401 9.82902 13.3493 9.75 13.1504 9.75H10.1504C9.95148 9.75 9.76071 9.82902 9.62006 9.96967C9.47941 10.1103 9.40039 10.3011 9.40039 10.5V14.25H7.90039C7.70148 14.25 7.51071 14.329 7.37006 14.4697C7.22941 14.6103 7.15039 14.8011 7.15039 15C7.15039 15.1989 7.22941 15.3897 7.37006 15.5303C7.51071 15.671 7.70148 15.75 7.90039 15.75H33.4004C33.5993 15.75 33.7901 15.671 33.9307 15.5303C34.0714 15.3897 34.1504 15.1989 34.1504 15C34.1504 14.8011 34.0714 14.6103 33.9307 14.4697C33.7901 14.329 33.5993 14.25 33.4004 14.25ZM10.9004 14.25V11.25H12.4004V14.25H10.9004ZM16.9004 14.25V8.25H18.4004V14.25H16.9004ZM22.9004 14.25V6H24.4004V14.25H22.9004ZM28.9004 14.25V8.25H30.4004V14.25H28.9004Z" fill="#D6B473"/>
<path d="M26.6504 27H9.40039C9.20148 27 9.01071 26.921 8.87006 26.7803C8.72941 26.6397 8.65039 26.4489 8.65039 26.25C8.65039 26.0511 8.72941 25.8603 8.87006 25.7197C9.01071 25.579 9.20148 25.5 9.40039 25.5H26.6504C26.8493 25.5 27.0401 25.579 27.1807 25.7197C27.3214 25.8603 27.4004 26.0511 27.4004 26.25C27.4004 26.4489 27.3214 26.6397 27.1807 26.7803C27.0401 26.921 26.8493 27 26.6504 27Z" fill="#D6B473"/>
<path d="M22.9004 31.5H9.40039C9.20148 31.5 9.01071 31.421 8.87006 31.2803C8.72941 31.1397 8.65039 30.9489 8.65039 30.75C8.65039 30.5511 8.72941 30.3603 8.87006 30.2197C9.01071 30.079 9.20148 30 9.40039 30H22.9004C23.0993 30 23.2901 30.079 23.4307 30.2197C23.5714 30.3603 23.6504 30.5511 23.6504 30.75C23.6504 30.9489 23.5714 31.1397 23.4307 31.2803C23.2901 31.421 23.0993 31.5 22.9004 31.5Z" fill="#D6B473"/>
<path d="M18.4004 36H9.40039C9.20148 36 9.01071 35.921 8.87006 35.7803C8.72941 35.6397 8.65039 35.4489 8.65039 35.25C8.65039 35.0511 8.72941 34.8603 8.87006 34.7197C9.01071 34.579 9.20148 34.5 9.40039 34.5H18.4004C18.5993 34.5 18.7901 34.579 18.9307 34.7197C19.0714 34.8603 19.1504 35.0511 19.1504 35.25C19.1504 35.4489 19.0714 35.6397 18.9307 35.7803C18.7901 35.921 18.5993 36 18.4004 36Z" fill="#D6B473"/>
</svg>
