<svg width="28" height="28" viewBox="0 0 28 28" fill="none" xmlns="http://www.w3.org/2000/svg">
<circle cx="14" cy="14" r="14" fill="#D6B473"/>
<g clip-path="url(#clip0_726_256)">
<path d="M18.0704 9.59082C17.883 9.59082 17.7305 9.74332 17.7305 9.9307C17.7305 10.1181 17.883 10.2706 18.0704 10.2706C18.2578 10.2706 18.4102 10.1181 18.4102 9.9307C18.4102 9.74329 18.2578 9.59082 18.0704 9.59082Z" fill="#0D141C"/>
<path d="M13.9995 10.9873C12.338 10.9873 10.9863 12.339 10.9863 14.0005C10.9863 15.6619 12.338 17.0137 13.9995 17.0137C15.661 17.0137 17.0127 15.662 17.0127 14.0005C17.0127 12.339 15.661 10.9873 13.9995 10.9873Z" fill="#0D141C"/>
<path d="M17.1621 7H10.8379C8.72167 7 7 8.72167 7 10.8379V17.1621C7 19.2784 8.72167 21 10.8379 21H17.1621C19.2784 21 21 19.2783 21 17.1621V10.8379C21 8.72167 19.2784 7 17.1621 7ZM14 17.8399C11.8826 17.8399 10.1601 16.1174 10.1601 14C10.1601 11.8826 11.8827 10.1601 14 10.1601C16.1173 10.1601 17.8399 11.8827 17.8399 14C17.8399 16.1173 16.1173 17.8399 14 17.8399ZM18.0696 11.0971C17.4263 11.0971 16.9029 10.5737 16.9029 9.93043C16.9029 9.28714 17.4263 8.76375 18.0696 8.76375C18.7129 8.76375 19.2362 9.28711 19.2362 9.9304C19.2362 10.5737 18.7129 11.0971 18.0696 11.0971Z" fill="#0D141C"/>
</g>
<defs>
<clipPath id="clip0_726_256">
<rect width="14" height="14" fill="white" transform="translate(7 7)"/>
</clipPath>
</defs>
</svg>
