<svg width="28" height="28" viewBox="0 0 28 28" fill="none" xmlns="http://www.w3.org/2000/svg">
<circle cx="14" cy="14" r="14" fill="#D6B473"/>
<path d="M20.4009 20.4004V15.7124C20.4009 13.4084 19.9049 11.6484 17.2169 11.6484C15.9209 11.6484 15.0569 12.3524 14.7049 13.0244H14.6729V11.8564H12.1289V20.4004H14.7849V16.1604C14.7849 15.0404 14.9929 13.9684 16.3689 13.9684C17.7289 13.9684 17.7449 15.2324 17.7449 16.2244V20.3844H20.4009V20.4004Z" fill="#0D141C"/>
<path d="M7.80859 11.8555H10.4646V20.3995H7.80859V11.8555Z" fill="#0D141C"/>
<path d="M9.1356 7.59961C8.28761 7.59961 7.59961 8.28761 7.59961 9.13561C7.59961 9.98361 8.28761 10.6876 9.1356 10.6876C9.9836 10.6876 10.6716 9.98361 10.6716 9.13561C10.6716 8.28761 9.9836 7.59961 9.1356 7.59961Z" fill="#0D141C"/>
</svg>
