<svg width="313" height="260" viewBox="0 0 313 260" fill="none" xmlns="http://www.w3.org/2000/svg">
<path d="M213.982 87.2802C213.982 119.158 188.142 144.998 156.265 144.998C124.387 144.998 98.5469 119.158 98.5469 87.2802C98.5469 55.4027 124.387 29.5625 156.265 29.5625C188.142 29.5625 213.982 55.4027 213.982 87.2802Z" fill="url(#paint0_radial_1333_212)"/>
<g opacity="0.2">
<path d="M125.078 76.3281C128.138 69.6697 138.992 56.7969 155.997 56.7969C173.003 56.7969 184.178 69.6697 187.882 76.3281C182.744 80.4399 169.173 88.6636 155.997 88.6636C142.821 88.6636 129.895 80.4399 125.078 76.3281Z" fill="url(#paint1_linear_1333_212)"/>
</g>
<path fill-rule="evenodd" clip-rule="evenodd" d="M156.094 259.597V101.408H157.984V259.597H156.094Z" fill="url(#paint2_linear_1333_212)"/>
<path d="M156.682 101.992C156.682 115.289 145.903 126.068 132.606 126.068H57.4552C37.1004 126.068 20.5996 142.574 20.5996 162.929V169.088V259.597" stroke="url(#paint3_linear_1333_212)" stroke-width="1.89" stroke-miterlimit="0"/>
<path d="M157.039 101.992C157.039 115.289 167.818 126.068 181.115 126.068H256.266C276.621 126.068 293.121 142.574 293.121 162.929V259.597" stroke="url(#paint4_linear_1333_212)" stroke-width="1.89" stroke-miterlimit="0"/>
<path d="M88.6406 259.597V160.091C88.6406 141.302 103.872 126.068 122.661 126.068H132.606C145.903 126.068 156.682 115.289 156.682 101.992" stroke="url(#paint5_linear_1333_212)" stroke-width="1.89" stroke-miterlimit="0"/>
<path d="M88.6406 259.597V160.091C88.6406 141.302 103.872 126.068 122.661 126.068H132.606C145.903 126.068 156.682 115.289 156.682 101.992" stroke="url(#paint6_linear_1333_212)" stroke-width="1.42513" stroke-miterlimit="0" stroke-dasharray="3.78 3.78"/>
<path d="M157.037 101.992C157.037 115.289 167.816 126.068 181.113 126.068H191.058C209.847 126.068 225.078 141.302 225.078 160.091V259.597" stroke="url(#paint7_linear_1333_212)" stroke-width="1.89" stroke-miterlimit="0"/>
<path d="M311.699 188.003C311.699 198.441 303.237 206.903 292.799 206.903C282.36 206.903 273.898 198.441 273.898 188.003C273.898 177.564 282.36 169.103 292.799 169.103C303.237 169.103 311.699 177.564 311.699 188.003Z" fill="#11141C"/>
<path d="M311.699 188.003C311.699 198.441 303.237 206.903 292.799 206.903C282.36 206.903 273.898 198.441 273.898 188.003C273.898 177.564 282.36 169.103 292.799 169.103C303.237 169.103 311.699 177.564 311.699 188.003Z" stroke="#373F47" stroke-width="1.89" stroke-miterlimit="0"/>
<path d="M300.359 188.002C300.359 192.178 296.974 195.563 292.798 195.563C288.623 195.563 285.238 192.178 285.238 188.002C285.238 183.827 288.623 180.442 292.798 180.442C296.974 180.442 300.359 183.827 300.359 188.002Z" fill="#373F47"/>
<path d="M243.293 188.003C243.293 198.441 234.831 206.903 224.393 206.903C213.954 206.903 205.492 198.441 205.492 188.003C205.492 177.564 213.954 169.103 224.393 169.103C234.831 169.103 243.293 177.564 243.293 188.003Z" fill="#11141C"/>
<path d="M243.293 188.003C243.293 198.441 234.831 206.903 224.393 206.903C213.954 206.903 205.492 198.441 205.492 188.003C205.492 177.564 213.954 169.103 224.393 169.103C234.831 169.103 243.293 177.564 243.293 188.003Z" stroke="#373F47" stroke-width="1.89" stroke-miterlimit="0"/>
<path d="M231.952 188.002C231.952 192.178 228.568 195.563 224.392 195.563C220.217 195.563 216.832 192.178 216.832 188.002C216.832 183.827 220.217 180.442 224.392 180.442C228.568 180.442 231.952 183.827 231.952 188.002Z" fill="#373F47"/>
<path d="M175.582 187.988C175.582 198.427 167.12 206.889 156.682 206.889C146.243 206.889 137.781 198.427 137.781 187.988C137.781 177.55 146.243 169.088 156.682 169.088C167.12 169.088 175.582 177.55 175.582 187.988Z" fill="#11141C"/>
<path d="M175.582 187.988C175.582 198.427 167.12 206.889 156.682 206.889C146.243 206.889 137.781 198.427 137.781 187.988C137.781 177.55 146.243 169.088 156.682 169.088C167.12 169.088 175.582 177.55 175.582 187.988Z" stroke="#373F47" stroke-width="1.89" stroke-miterlimit="0"/>
<path d="M164.243 187.989C164.243 192.164 160.859 195.549 156.683 195.549C152.508 195.549 149.123 192.164 149.123 187.989C149.123 183.813 152.508 180.429 156.683 180.429C160.859 180.429 164.243 183.813 164.243 187.989Z" fill="#373F47"/>
<path d="M107.543 178.477C107.543 188.916 99.0811 197.378 88.6425 197.378C78.2039 197.378 69.7422 188.916 69.7422 178.477C69.7422 168.039 78.2039 159.577 88.6425 159.577C99.0811 159.577 107.543 168.039 107.543 178.477Z" fill="#11141C"/>
<path d="M107.543 178.477C107.543 188.916 99.0811 197.378 88.6425 197.378C78.2039 197.378 69.7422 188.916 69.7422 178.477C69.7422 168.039 78.2039 159.577 88.6425 159.577C99.0811 159.577 107.543 168.039 107.543 178.477Z" stroke="#D6B473" stroke-width="1.89" stroke-miterlimit="0"/>
<path d="M96.2023 178.477C96.2023 182.653 92.8176 186.037 88.6421 186.037C84.4666 186.037 81.082 182.653 81.082 178.477C81.082 174.302 84.4666 170.917 88.6421 170.917C92.8176 170.917 96.2023 174.302 96.2023 178.477Z" fill="#D6B473"/>
<path d="M39.4999 187.988C39.4999 198.427 31.0382 206.889 20.5995 206.889C10.1609 206.889 1.69922 198.427 1.69922 187.988C1.69922 177.55 10.1609 169.088 20.5995 169.088C31.0382 169.088 39.4999 177.55 39.4999 187.988Z" fill="#11141C"/>
<path d="M39.4999 187.988C39.4999 198.427 31.0382 206.889 20.5995 206.889C10.1609 206.889 1.69922 198.427 1.69922 187.988C1.69922 177.55 10.1609 169.088 20.5995 169.088C31.0382 169.088 39.4999 177.55 39.4999 187.988Z" stroke="#373F47" stroke-width="1.89" stroke-miterlimit="0"/>
<path d="M28.1593 187.988C28.1593 192.163 24.7746 195.548 20.5991 195.548C16.4237 195.548 13.0391 192.163 13.0391 187.988C13.0391 183.812 16.4237 180.428 20.5991 180.428C24.7746 180.428 28.1593 183.812 28.1593 187.988Z" fill="#373F47"/>
<path d="M160.749 104.011C160.749 105.942 159.185 107.506 157.255 107.506C155.324 107.506 153.76 105.942 153.76 104.011C153.76 102.081 155.324 100.517 157.255 100.517C159.185 100.517 160.749 102.081 160.749 104.011Z" fill="#D6B473"/>
<path d="M160.749 104.011C160.749 105.942 159.185 107.506 157.255 107.506C155.324 107.506 153.76 105.942 153.76 104.011C153.76 102.081 155.324 100.517 157.255 100.517C159.185 100.517 160.749 102.081 160.749 104.011Z" stroke="#11141C" stroke-width="3.49478" stroke-miterlimit="0"/>
<path d="M227.871 73.3C227.871 113.045 195.654 145.262 155.909 145.262C116.165 145.262 83.9473 113.045 83.9473 73.3C83.9473 33.5553 116.165 1.33789 155.909 1.33789C195.654 1.33789 227.871 33.5553 227.871 73.3Z" stroke="url(#paint8_linear_1333_212)" stroke-width="0.827138" stroke-miterlimit="0"/>
<g opacity="0.3">
<path d="M210.351 73.3006C210.351 103.369 185.978 127.742 155.91 127.742C125.842 127.742 101.469 103.369 101.469 73.3006C101.469 43.2327 125.842 18.8594 155.91 18.8594C185.978 18.8594 210.351 43.2327 210.351 73.3006Z" stroke="url(#paint9_linear_1333_212)" stroke-width="1.73285" stroke-miterlimit="0"/>
</g>
<g opacity="0.7">
<path d="M199.686 73.3003C199.686 97.4782 180.088 117.077 155.91 117.077C131.732 117.077 112.133 97.4782 112.133 73.3003C112.133 49.1223 131.732 29.5234 155.91 29.5234C180.088 29.5234 199.686 49.1223 199.686 73.3003Z" stroke="url(#paint10_linear_1333_212)" stroke-width="1.81143" stroke-miterlimit="0"/>
</g>
<path d="M125.078 76.3271C128.138 69.6687 138.992 56.7959 155.997 56.7959C173.003 56.7959 184.178 69.6687 187.882 76.3271" stroke="#D6B473" stroke-width="1.79324" stroke-miterlimit="0"/>
<path d="M151.28 70.5448L147.632 80.4922H145.209L141.561 70.5448H143.699L146.435 78.4543L149.157 70.5448H151.28ZM154.472 70.5448V80.4922H152.476V70.5448H154.472ZM159.877 80.5919C159.184 80.5919 158.557 80.4732 157.996 80.2357C157.445 79.9981 157.008 79.6561 156.685 79.2096C156.362 78.763 156.196 78.2357 156.186 77.6277H158.324C158.353 78.0362 158.495 78.3592 158.752 78.5968C159.018 78.8343 159.379 78.9531 159.835 78.9531C160.3 78.9531 160.666 78.8438 160.932 78.6253C161.198 78.3973 161.331 78.1027 161.331 77.7417C161.331 77.4472 161.241 77.2049 161.06 77.0149C160.88 76.8249 160.652 76.6776 160.376 76.5731C160.11 76.4591 159.74 76.3356 159.265 76.2026C158.619 76.0125 158.091 75.8273 157.683 75.6468C157.284 75.4567 156.937 75.1765 156.642 74.8059C156.357 74.4259 156.215 73.9224 156.215 73.2953C156.215 72.7062 156.362 72.1932 156.657 71.7562C156.951 71.3191 157.364 70.9866 157.896 70.7586C158.429 70.521 159.037 70.4023 159.721 70.4023C160.747 70.4023 161.578 70.6541 162.215 71.1576C162.861 71.6516 163.217 72.3452 163.283 73.2383H161.089C161.07 72.8963 160.922 72.616 160.647 72.3975C160.381 72.1694 160.025 72.0554 159.578 72.0554C159.189 72.0554 158.875 72.1552 158.638 72.3547C158.41 72.5542 158.296 72.844 158.296 73.224C158.296 73.4901 158.381 73.7133 158.552 73.8938C158.733 74.0649 158.951 74.2074 159.208 74.3214C159.474 74.4259 159.844 74.5494 160.319 74.6919C160.965 74.8819 161.493 75.072 161.901 75.262C162.31 75.452 162.661 75.737 162.956 76.117C163.25 76.4971 163.397 76.9959 163.397 77.6134C163.397 78.1455 163.26 78.6395 162.984 79.0956C162.709 79.5516 162.305 79.9174 161.773 80.1929C161.241 80.4589 160.609 80.5919 159.877 80.5919ZM167.122 72.1552V74.6492H170.471V76.2311H167.122V78.8675H170.899V80.4922H165.127V70.5305H170.899V72.1552H167.122Z" fill="white"/>
<defs>
<radialGradient id="paint0_radial_1333_212" cx="0" cy="0" r="1" gradientUnits="userSpaceOnUse" gradientTransform="translate(156.265 87.2802) scale(57.7177)">
<stop stop-color="#D6B473" stop-opacity="0.08"/>
<stop offset="1" stop-color="#D6B473" stop-opacity="0"/>
</radialGradient>
<linearGradient id="paint1_linear_1333_212" x1="187.882" y1="56.7969" x2="187.882" y2="88.6636" gradientUnits="userSpaceOnUse">
<stop stop-color="#D6B473"/>
<stop offset="1" stop-color="#BDA068" stop-opacity="0"/>
</linearGradient>
<linearGradient id="paint2_linear_1333_212" x1="185.009" y1="207.936" x2="185.009" y2="259.597" gradientUnits="userSpaceOnUse">
<stop stop-color="#373F47"/>
<stop offset="1" stop-color="#373F47" stop-opacity="0"/>
</linearGradient>
<linearGradient id="paint3_linear_1333_212" x1="5362.34" y1="208.127" x2="5362.34" y2="259.598" gradientUnits="userSpaceOnUse">
<stop stop-color="#373F47"/>
<stop offset="1" stop-color="#373F47" stop-opacity="0"/>
</linearGradient>
<linearGradient id="paint4_linear_1333_212" x1="-5048.62" y1="208.127" x2="-5048.62" y2="259.598" gradientUnits="userSpaceOnUse">
<stop stop-color="#373F47"/>
<stop offset="1" stop-color="#373F47" stop-opacity="0"/>
</linearGradient>
<linearGradient id="paint5_linear_1333_212" x1="2759.51" y1="208.127" x2="2759.51" y2="259.597" gradientUnits="userSpaceOnUse">
<stop stop-color="#373F47"/>
<stop offset="1" stop-color="#373F47" stop-opacity="0"/>
</linearGradient>
<linearGradient id="paint6_linear_1333_212" x1="99.8857" y1="207.224" x2="99.8857" y2="259.241" gradientUnits="userSpaceOnUse">
<stop stop-color="#D6B473"/>
<stop offset="1" stop-color="#D6B473" stop-opacity="0"/>
</linearGradient>
<linearGradient id="paint7_linear_1333_212" x1="-2445.79" y1="208.127" x2="-2445.79" y2="259.597" gradientUnits="userSpaceOnUse">
<stop stop-color="#373F47"/>
<stop offset="1" stop-color="#373F47" stop-opacity="0"/>
</linearGradient>
<linearGradient id="paint8_linear_1333_212" x1="227.871" y1="1.33789" x2="227.871" y2="145.262" gradientUnits="userSpaceOnUse">
<stop stop-color="white"/>
<stop offset="1" stop-color="#D6B473" stop-opacity="0"/>
</linearGradient>
<linearGradient id="paint9_linear_1333_212" x1="210.351" y1="18.8594" x2="210.351" y2="127.742" gradientUnits="userSpaceOnUse">
<stop stop-color="white"/>
<stop offset="1" stop-color="#D6B473" stop-opacity="0"/>
</linearGradient>
<linearGradient id="paint10_linear_1333_212" x1="199.686" y1="29.5234" x2="199.686" y2="117.077" gradientUnits="userSpaceOnUse">
<stop stop-color="white"/>
<stop offset="1" stop-color="#D6B473" stop-opacity="0"/>
</linearGradient>
</defs>
</svg>
