<svg width="28" height="28" viewBox="0 0 28 28" fill="none" xmlns="http://www.w3.org/2000/svg">
<circle cx="14" cy="14" r="14" fill="#D6B473"/>
<path d="M20.9996 17.4817V19.5893C21.0004 19.7849 20.9602 19.9786 20.8817 20.1578C20.8031 20.3371 20.6879 20.498 20.5435 20.6303C20.399 20.7626 20.2285 20.8633 20.0428 20.9259C19.8571 20.9886 19.6603 21.0119 19.465 20.9943C17.299 20.7594 15.2183 20.0207 13.3902 18.8376C11.6895 17.7589 10.2475 16.3198 9.16674 14.6224C7.9771 12.7897 7.23677 10.7031 7.00571 8.53156C6.98812 8.33729 7.01126 8.1415 7.07364 7.95664C7.13603 7.77178 7.2363 7.60191 7.36807 7.45785C7.49984 7.31378 7.66022 7.19868 7.839 7.11986C8.01779 7.04105 8.21106 7.00025 8.40651 7.00007H10.5183C10.8599 6.99671 11.1911 7.11744 11.4501 7.33976C11.7091 7.56208 11.8783 7.87081 11.9261 8.20841C12.0152 8.88287 12.1805 9.54511 12.4188 10.1825C12.5135 10.4339 12.534 10.7072 12.4779 10.9699C12.4218 11.2327 12.2913 11.4738 12.1021 11.6648L11.2081 12.557C12.2102 14.3158 13.6693 15.7721 15.4316 16.7721L16.3256 15.8799C16.5169 15.6911 16.7586 15.5609 17.0218 15.5049C17.2851 15.4488 17.5589 15.4693 17.8108 15.5638C18.4495 15.8016 19.113 15.9666 19.7888 16.0556C20.1308 16.1037 20.4431 16.2756 20.6663 16.5386C20.8895 16.8015 21.0081 17.1372 20.9996 17.4817Z" fill="#010101"/>
</svg>
