<svg width="458" height="77" viewBox="0 0 458 77" fill="none" xmlns="http://www.w3.org/2000/svg">
<path d="M11.2568 2H70V13.3514H0L11.2568 2Z" fill="#F7A325"/>
<path d="M70 60.7432V2H58.6486V72L70 60.7432Z" fill="#F7A325"/>
<path d="M11.2568 19.0273H52.973V30.3787H0L11.2568 19.0273Z" fill="#F7A325"/>
<path d="M52.9727 60.7432V19.027H47.297H41.6213V72L52.9727 60.7432Z" fill="#F7A325"/>
<path d="M11.2568 36.0547H35.7568V47.406H0L11.2568 36.0547Z" fill="#F7A325"/>
<path d="M35.9453 60.7432V36.0541H24.594V72L35.9453 60.7432Z" fill="#F7A325"/>
<path d="M118.818 15.4545L130.932 52.0909H131.409L143.5 15.4545H152.773L136.364 62H125.955L109.568 15.4545H118.818ZM159.18 62V27.0909H167.407V62H159.18ZM163.316 22.1364C162.013 22.1364 160.892 21.7045 159.952 20.8409C159.013 19.9621 158.543 18.9091 158.543 17.6818C158.543 16.4394 159.013 15.3864 159.952 14.5227C160.892 13.6439 162.013 13.2045 163.316 13.2045C164.634 13.2045 165.756 13.6439 166.68 14.5227C167.619 15.3864 168.089 16.4394 168.089 17.6818C168.089 18.9091 167.619 19.9621 166.68 20.8409C165.756 21.7045 164.634 22.1364 163.316 22.1364ZM204.098 36.3182L196.598 37.1364C196.386 36.3788 196.015 35.6667 195.485 35C194.969 34.3333 194.272 33.7955 193.394 33.3864C192.515 32.9773 191.439 32.7727 190.166 32.7727C188.454 32.7727 187.015 33.1439 185.848 33.8864C184.697 34.6288 184.128 35.5909 184.144 36.7727C184.128 37.7879 184.5 38.6136 185.257 39.25C186.03 39.8864 187.303 40.4091 189.075 40.8182L195.03 42.0909C198.333 42.803 200.788 43.9318 202.394 45.4773C204.015 47.0227 204.833 49.0455 204.848 51.5455C204.833 53.7424 204.189 55.6818 202.916 57.3636C201.659 59.0303 199.909 60.3333 197.666 61.2727C195.424 62.2121 192.848 62.6818 189.939 62.6818C185.666 62.6818 182.227 61.7879 179.621 60C177.015 58.197 175.462 55.6894 174.962 52.4773L182.985 51.7045C183.348 53.2803 184.121 54.4697 185.303 55.2727C186.485 56.0758 188.022 56.4773 189.916 56.4773C191.871 56.4773 193.439 56.0758 194.621 55.2727C195.818 54.4697 196.416 53.4773 196.416 52.2955C196.416 51.2955 196.03 50.4697 195.257 49.8182C194.5 49.1667 193.318 48.6667 191.712 48.3182L185.757 47.0682C182.409 46.3712 179.932 45.197 178.325 43.5455C176.719 41.8788 175.924 39.7727 175.939 37.2273C175.924 35.0758 176.507 33.2121 177.689 31.6364C178.886 30.0455 180.545 28.8182 182.666 27.9545C184.803 27.0758 187.265 26.6364 190.053 26.6364C194.144 26.6364 197.363 27.5076 199.712 29.25C202.075 30.9924 203.538 33.3485 204.098 36.3182ZM227.727 62.6818C224.227 62.6818 221.204 61.9545 218.659 60.5C216.128 59.0303 214.181 56.9545 212.818 54.2727C211.454 51.5758 210.772 48.4015 210.772 44.75C210.772 41.1591 211.454 38.0076 212.818 35.2955C214.197 32.5682 216.121 30.447 218.59 28.9318C221.06 27.4015 223.962 26.6364 227.295 26.6364C229.447 26.6364 231.477 26.9848 233.386 27.6818C235.31 28.3636 237.007 29.4242 238.477 30.8636C239.962 32.303 241.128 34.1364 241.977 36.3636C242.825 38.5758 243.25 41.2121 243.25 44.2727V46.7955H214.636V41.25H235.363C235.348 39.6742 235.007 38.2727 234.34 37.0455C233.674 35.803 232.742 34.8258 231.545 34.1136C230.363 33.4015 228.984 33.0455 227.409 33.0455C225.727 33.0455 224.25 33.4545 222.977 34.2727C221.704 35.0758 220.712 36.1364 220 37.4545C219.303 38.7576 218.947 40.1894 218.931 41.75V46.5909C218.931 48.6212 219.303 50.3636 220.045 51.8182C220.787 53.2576 221.825 54.3636 223.159 55.1364C224.492 55.8939 226.053 56.2727 227.84 56.2727C229.037 56.2727 230.121 56.1061 231.09 55.7727C232.06 55.4242 232.901 54.9167 233.613 54.25C234.325 53.5833 234.863 52.7576 235.227 51.7727L242.909 52.6364C242.424 54.6667 241.5 56.4394 240.136 57.9545C238.787 59.4545 237.06 60.6212 234.954 61.4545C232.848 62.2727 230.439 62.6818 227.727 62.6818ZM257.867 62L248.003 27.0909H256.39L262.526 51.6364H262.844L269.117 27.0909H277.412L283.685 51.5H284.026L290.071 27.0909H298.48L288.594 62H280.026L273.48 38.4091H273.003L266.458 62H257.867ZM319.319 62.6818C315.819 62.6818 312.797 61.9545 310.251 60.5C307.721 59.0303 305.774 56.9545 304.41 54.2727C303.047 51.5758 302.365 48.4015 302.365 44.75C302.365 41.1591 303.047 38.0076 304.41 35.2955C305.789 32.5682 307.713 30.447 310.183 28.9318C312.653 27.4015 315.554 26.6364 318.887 26.6364C321.039 26.6364 323.069 26.9848 324.978 27.6818C326.903 28.3636 328.6 29.4242 330.069 30.8636C331.554 32.303 332.721 34.1364 333.569 36.3636C334.418 38.5758 334.842 41.2121 334.842 44.2727V46.7955H306.228V41.25H326.956C326.941 39.6742 326.6 38.2727 325.933 37.0455C325.266 35.803 324.334 34.8258 323.137 34.1136C321.956 33.4015 320.577 33.0455 319.001 33.0455C317.319 33.0455 315.842 33.4545 314.569 34.2727C313.297 35.0758 312.304 36.1364 311.592 37.4545C310.895 38.7576 310.539 40.1894 310.524 41.75V46.5909C310.524 48.6212 310.895 50.3636 311.637 51.8182C312.38 53.2576 313.418 54.3636 314.751 55.1364C316.084 55.8939 317.645 56.2727 319.433 56.2727C320.63 56.2727 321.713 56.1061 322.683 55.7727C323.653 55.4242 324.494 54.9167 325.206 54.25C325.918 53.5833 326.456 52.7576 326.819 51.7727L334.501 52.6364C334.016 54.6667 333.092 56.4394 331.728 57.9545C330.38 59.4545 328.653 60.6212 326.547 61.4545C324.441 62.2727 322.031 62.6818 319.319 62.6818ZM352.488 62.7045C350.276 62.7045 348.283 62.3106 346.51 61.5227C344.753 60.7197 343.359 59.5379 342.329 57.9773C341.313 56.4167 340.806 54.4924 340.806 52.2045C340.806 50.2348 341.17 48.6061 341.897 47.3182C342.624 46.0303 343.617 45 344.874 44.2273C346.132 43.4545 347.548 42.8712 349.124 42.4773C350.715 42.0682 352.359 41.7727 354.056 41.5909C356.101 41.3788 357.76 41.1894 359.033 41.0227C360.306 40.8409 361.23 40.5682 361.806 40.2045C362.397 39.8258 362.692 39.2424 362.692 38.4545V38.3182C362.692 36.6061 362.185 35.2803 361.17 34.3409C360.154 33.4015 358.692 32.9318 356.783 32.9318C354.768 32.9318 353.17 33.3712 351.988 34.25C350.821 35.1288 350.033 36.1667 349.624 37.3636L341.942 36.2727C342.548 34.1515 343.548 32.3788 344.942 30.9545C346.336 29.5151 348.041 28.4394 350.056 27.7273C352.071 27 354.298 26.6364 356.738 26.6364C358.42 26.6364 360.094 26.8333 361.76 27.2273C363.427 27.6212 364.95 28.2727 366.329 29.1818C367.707 30.0758 368.813 31.2955 369.647 32.8409C370.495 34.3864 370.92 36.3182 370.92 38.6364V62H363.01V57.2045H362.738C362.238 58.1742 361.533 59.0833 360.624 59.9318C359.73 60.7652 358.601 61.4394 357.238 61.9545C355.889 62.4545 354.306 62.7045 352.488 62.7045ZM354.624 56.6591C356.276 56.6591 357.707 56.3333 358.92 55.6818C360.132 55.0152 361.063 54.1364 361.715 53.0455C362.382 51.9545 362.715 50.7652 362.715 49.4773V45.3636C362.457 45.5758 362.018 45.7727 361.397 45.9545C360.791 46.1364 360.109 46.2955 359.351 46.4318C358.594 46.5682 357.844 46.6894 357.101 46.7955C356.359 46.9015 355.715 46.9924 355.17 47.0682C353.942 47.2348 352.844 47.5076 351.874 47.8864C350.904 48.2652 350.139 48.7955 349.579 49.4773C349.018 50.1439 348.738 51.0076 348.738 52.0682C348.738 53.5833 349.291 54.7273 350.397 55.5C351.503 56.2727 352.912 56.6591 354.624 56.6591ZM388.06 15.4545V62H379.832V15.4545H388.06ZM414.592 27.0909V33.4545H394.523V27.0909H414.592ZM399.478 18.7273H407.705V51.5C407.705 52.6061 407.872 53.4545 408.205 54.0455C408.554 54.6212 409.008 55.0152 409.569 55.2273C410.129 55.4394 410.751 55.5455 411.432 55.5455C411.948 55.5455 412.417 55.5076 412.842 55.4318C413.281 55.3561 413.614 55.2879 413.842 55.2273L415.228 61.6591C414.789 61.8106 414.16 61.9773 413.342 62.1591C412.539 62.3409 411.554 62.447 410.387 62.4773C408.326 62.5379 406.47 62.2273 404.819 61.5455C403.167 60.8485 401.857 59.7727 400.887 58.3182C399.932 56.8636 399.463 55.0455 399.478 52.8636V18.7273ZM431.09 41.5455V62H422.862V15.4545H430.908V33.0227H431.317C432.135 31.053 433.4 29.5 435.112 28.3636C436.84 27.2121 439.037 26.6364 441.703 26.6364C444.127 26.6364 446.241 27.1439 448.044 28.1591C449.847 29.1742 451.241 30.6591 452.226 32.6136C453.226 34.5682 453.726 36.9545 453.726 39.7727V62H445.499V41.0455C445.499 38.697 444.893 36.8712 443.68 35.5682C442.483 34.25 440.802 33.5909 438.635 33.5909C437.18 33.5909 435.877 33.9091 434.726 34.5455C433.59 35.1667 432.696 36.0682 432.044 37.25C431.408 38.4318 431.09 39.8636 431.09 41.5455Z" fill="#F3F3F3"/>
</svg>
