<svg width="15" height="18" viewBox="0 0 15 18" fill="none" xmlns="http://www.w3.org/2000/svg">
<g filter="url(#filter0_b_611_245)">
<circle cx="7.19999" cy="4.3289" r="4.3289" fill="#D6B473"/>
<circle cx="7.19999" cy="4.3289" r="4.27654" stroke="url(#paint0_linear_611_245)" stroke-width="0.10471"/>
</g>
<g filter="url(#filter1_b_611_245)">
<path d="M6.2189e-07 14.244C2.7843e-07 16.2083 1.59243 17.8008 3.55679 17.8008L10.6704 17.8008C12.6347 17.8008 14.2272 16.2084 14.2272 14.244C14.2272 11.6248 12.1025 9.5016 9.48339 9.5016C7.79332 9.5016 6.43385 9.5016 4.74379 9.5016C2.12464 9.5016 1.07984e-06 11.6248 6.2189e-07 14.244Z" fill="#D6B473"/>
<path d="M0.0523555 14.244C0.0523552 16.1794 1.62135 17.7484 3.55679 17.7484L10.6704 17.7484C12.6058 17.7484 14.1748 16.1794 14.1748 14.244C14.1748 11.6538 12.0736 9.55395 9.48339 9.55395L9.47349 9.55395L9.4636 9.55395L9.45372 9.55395L9.44384 9.55395L9.43397 9.55395L9.42411 9.55395L9.41426 9.55395L9.40441 9.55395L9.39457 9.55395L9.38474 9.55395L9.37491 9.55395L9.3651 9.55395L9.35529 9.55395L9.34548 9.55395L9.33569 9.55395L9.3259 9.55395L9.31611 9.55395L9.30634 9.55395L9.29657 9.55395L9.28681 9.55395L9.27706 9.55395L9.26731 9.55395L9.25757 9.55395L9.24784 9.55395L9.23811 9.55395L9.22839 9.55395L9.21868 9.55395L9.20897 9.55395L9.19927 9.55395L9.18958 9.55395L9.1799 9.55395L9.17022 9.55395L9.16054 9.55395L9.15088 9.55395L9.14122 9.55395L9.13157 9.55395L9.12192 9.55395L9.11228 9.55395L9.10265 9.55395L9.09302 9.55395L9.0834 9.55395L9.07379 9.55395L9.06418 9.55395L9.05458 9.55395L9.04498 9.55395L9.03539 9.55395L9.02581 9.55395L9.01623 9.55395L9.00666 9.55395L8.9971 9.55395L8.98754 9.55395L8.97799 9.55395L8.96844 9.55395L8.9589 9.55395L8.94937 9.55395L8.93984 9.55395L8.93032 9.55395L8.9208 9.55395L8.91129 9.55395L8.90178 9.55395L8.89228 9.55395L8.88279 9.55395L8.8733 9.55395L8.86382 9.55395L8.85435 9.55395L8.84488 9.55395L8.83541 9.55395L8.82595 9.55395L8.8165 9.55395L8.80705 9.55395L8.79761 9.55395L8.78817 9.55395L8.77874 9.55395L8.76931 9.55395L8.75989 9.55395L8.75047 9.55395L8.74106 9.55395L8.73166 9.55395L8.72226 9.55395L8.71286 9.55395L8.70348 9.55395L8.69409 9.55395L8.68471 9.55395L8.67534 9.55395L8.66597 9.55395L8.65661 9.55395L8.64725 9.55395L8.63789 9.55395L8.62854 9.55395L8.6192 9.55395L8.60986 9.55395L8.60053 9.55395L8.5912 9.55395L8.58187 9.55395L8.57255 9.55395L8.56324 9.55395L8.55393 9.55395L8.54462 9.55395L8.53532 9.55395L8.52603 9.55395L8.51673 9.55395L8.50745 9.55395L8.49816 9.55395L8.48889 9.55395L8.47961 9.55395L8.47035 9.55395L8.46108 9.55395L8.45182 9.55395L8.44256 9.55395L8.43331 9.55395L8.42407 9.55395L8.41482 9.55395L8.40558 9.55395L8.39635 9.55395L8.38712 9.55395L8.37789 9.55395L8.36867 9.55395L8.35945 9.55395L8.35024 9.55395L8.34103 9.55395L8.33183 9.55395L8.32262 9.55395L8.31343 9.55395L8.30423 9.55395L8.29504 9.55395L8.28586 9.55395L8.27668 9.55395L8.2675 9.55395L8.25832 9.55395L8.24915 9.55395L8.23999 9.55395L8.23082 9.55395L8.22166 9.55395L8.21251 9.55395L8.20335 9.55395L8.1942 9.55395L8.18506 9.55395L8.17592 9.55395L8.16678 9.55395L8.15765 9.55395L8.14851 9.55395L8.13939 9.55395L8.13026 9.55395L8.12114 9.55395L8.11202 9.55395L8.10291 9.55395L8.0938 9.55395L8.08469 9.55395L8.07558 9.55395L8.06648 9.55395L8.05738 9.55395L8.04829 9.55395L8.03919 9.55395L8.03011 9.55395L8.02102 9.55395L8.01193 9.55395L8.00285 9.55395L7.99378 9.55395L7.9847 9.55395L7.97563 9.55395L7.96656 9.55395L7.9575 9.55395L7.94843 9.55395L7.93937 9.55395L7.93031 9.55395L7.92126 9.55395L7.91221 9.55395L7.90316 9.55395L7.89411 9.55395L7.88506 9.55395L7.87602 9.55395L7.86698 9.55395L7.85794 9.55395L7.84891 9.55395L7.83988 9.55395L7.83085 9.55395L7.82182 9.55395L7.81279 9.55395L7.80377 9.55395L7.79475 9.55395L7.78573 9.55395L7.77672 9.55395L7.7677 9.55395L7.75869 9.55395L7.74968 9.55395L7.74067 9.55395L7.73167 9.55395L7.72266 9.55395L7.71366 9.55395L7.70466 9.55395L7.69566 9.55395L7.68667 9.55395L7.67768 9.55395L7.66868 9.55395L7.65969 9.55395L7.65071 9.55395L7.64172 9.55395L7.63273 9.55395L7.62375 9.55395L7.61477 9.55395L7.60579 9.55395L7.59681 9.55395L7.58784 9.55395L7.57886 9.55395L7.56989 9.55395L7.56092 9.55395L7.55194 9.55395L7.54298 9.55395L7.53401 9.55395L7.52504 9.55395L7.51608 9.55395L7.50711 9.55395L7.49815 9.55395L7.48919 9.55395L7.48023 9.55395L7.47127 9.55395L7.46232 9.55395L7.45336 9.55395L7.4444 9.55395L7.43545 9.55395L7.4265 9.55395L7.41755 9.55395L7.4086 9.55395L7.39965 9.55395L7.3907 9.55395L7.38175 9.55395L7.3728 9.55395L7.36385 9.55395L7.35491 9.55395L7.34596 9.55395L7.33702 9.55395L7.32808 9.55395L7.31914 9.55395L7.31019 9.55395L7.30125 9.55395L7.29231 9.55395L7.28337 9.55395L7.27443 9.55395L7.26549 9.55395L7.25656 9.55395L7.24762 9.55395L7.23868 9.55395L7.22974 9.55395L7.22081 9.55395L7.21187 9.55395L7.20294 9.55395L7.194 9.55395L7.18507 9.55395L7.17613 9.55395L7.1672 9.55395L7.15826 9.55395L7.14933 9.55395L7.14039 9.55395L7.13146 9.55395L7.12252 9.55395L7.11359 9.55395L7.10466 9.55395L7.09572 9.55395L7.08679 9.55395L7.07785 9.55395L7.06892 9.55395L7.05998 9.55395L7.05105 9.55395L7.04211 9.55395L7.03318 9.55395L7.02424 9.55395L7.01531 9.55395L7.00637 9.55395L6.99743 9.55395L6.9885 9.55395L6.97956 9.55395L6.97062 9.55395L6.96168 9.55395L6.95275 9.55395L6.94381 9.55395L6.93487 9.55395L6.92593 9.55395L6.91699 9.55395L6.90804 9.55395L6.8991 9.55395L6.89016 9.55395L6.88121 9.55395L6.87227 9.55395L6.86332 9.55395L6.85438 9.55395L6.84543 9.55395L6.83648 9.55395L6.82753 9.55395L6.81858 9.55395L6.80963 9.55395L6.80068 9.55395L6.79173 9.55395L6.78277 9.55395L6.77382 9.55395L6.76486 9.55395L6.75591 9.55395L6.74695 9.55395L6.73799 9.55395L6.72903 9.55395L6.72007 9.55395L6.7111 9.55395L6.70214 9.55395L6.69317 9.55395L6.6842 9.55395L6.67523 9.55395L6.66626 9.55395L6.65729 9.55395L6.64832 9.55395L6.63934 9.55395L6.63037 9.55395L6.62139 9.55395L6.61241 9.55395L6.60343 9.55395L6.59445 9.55395L6.58546 9.55395L6.57647 9.55395L6.56749 9.55395L6.5585 9.55395L6.5495 9.55395L6.54051 9.55395L6.53151 9.55395L6.52252 9.55395L6.51352 9.55395L6.50452 9.55395L6.49551 9.55395L6.48651 9.55395L6.4775 9.55395L6.46849 9.55395L6.45948 9.55395L6.45046 9.55395L6.44145 9.55395L6.43243 9.55395L6.42341 9.55395L6.41438 9.55395L6.40536 9.55395L6.39633 9.55395L6.3873 9.55395L6.37827 9.55395L6.36923 9.55395L6.3602 9.55395L6.35116 9.55395L6.34212 9.55395L6.33307 9.55395L6.32402 9.55395L6.31497 9.55395L6.30592 9.55395L6.29687 9.55395L6.28781 9.55395L6.27875 9.55395L6.26968 9.55395L6.26062 9.55395L6.25155 9.55395L6.24248 9.55395L6.2334 9.55395L6.22432 9.55395L6.21524 9.55395L6.20616 9.55395L6.19707 9.55395L6.18798 9.55395L6.17889 9.55395L6.1698 9.55395L6.1607 9.55395L6.1516 9.55395L6.14249 9.55395L6.13338 9.55395L6.12427 9.55395L6.11516 9.55395L6.10604 9.55395L6.09692 9.55395L6.08779 9.55395L6.07867 9.55395L6.06953 9.55395L6.0604 9.55395L6.05126 9.55395L6.04212 9.55395L6.03297 9.55395L6.02383 9.55395L6.01467 9.55395L6.00552 9.55395L5.99636 9.55395L5.98719 9.55395L5.97803 9.55395L5.96886 9.55395L5.95968 9.55395L5.9505 9.55395L5.94132 9.55395L5.93214 9.55395L5.92295 9.55395L5.91375 9.55395L5.90455 9.55395L5.89535 9.55395L5.88615 9.55395L5.87694 9.55395L5.86772 9.55395L5.85851 9.55395L5.84928 9.55395L5.84006 9.55395L5.83083 9.55395L5.82159 9.55395L5.81236 9.55395L5.80311 9.55395L5.79387 9.55395L5.78461 9.55395L5.77536 9.55395L5.7661 9.55395L5.75683 9.55395L5.74757 9.55395L5.73829 9.55395L5.72901 9.55395L5.71973 9.55395L5.71044 9.55395L5.70115 9.55395L5.69186 9.55395L5.68256 9.55395L5.67325 9.55395L5.66394 9.55395L5.65463 9.55395L5.64531 9.55395L5.63598 9.55395L5.62665 9.55395L5.61732 9.55395L5.60798 9.55395L5.59864 9.55395L5.58929 9.55395L5.57993 9.55395L5.57057 9.55395L5.56121 9.55395L5.55184 9.55395L5.54247 9.55395L5.53309 9.55395L5.5237 9.55395L5.51431 9.55395L5.50492 9.55395L5.49552 9.55395L5.48611 9.55395L5.4767 9.55395L5.46729 9.55395L5.45787 9.55395L5.44844 9.55395L5.43901 9.55395L5.42957 9.55395L5.42013 9.55395L5.41068 9.55395L5.40123 9.55395L5.39177 9.55395L5.3823 9.55395L5.37283 9.55395L5.36336 9.55395L5.35388 9.55395L5.34439 9.55395L5.33489 9.55395L5.3254 9.55395L5.31589 9.55395L5.30638 9.55395L5.29686 9.55395L5.28734 9.55395L5.27781 9.55395L5.26828 9.55395L5.25874 9.55395L5.24919 9.55395L5.23964 9.55395L5.23008 9.55395L5.22052 9.55395L5.21095 9.55395L5.20137 9.55395L5.19179 9.55395L5.1822 9.55395L5.1726 9.55395L5.163 9.55395L5.15339 9.55395L5.14378 9.55395L5.13416 9.55395L5.12453 9.55395L5.1149 9.55395L5.10526 9.55395L5.09561 9.55395L5.08596 9.55395L5.0763 9.55395L5.06663 9.55395L5.05696 9.55395L5.04728 9.55395L5.0376 9.55395L5.0279 9.55395L5.01821 9.55395L5.0085 9.55395L4.99879 9.55395L4.98907 9.55395L4.97934 9.55395L4.96961 9.55395L4.95987 9.55395L4.95012 9.55395L4.94037 9.55395L4.93061 9.55395L4.92084 9.55395L4.91106 9.55395L4.90128 9.55395L4.89149 9.55395L4.8817 9.55395L4.87189 9.55395L4.86208 9.55395L4.85227 9.55395L4.84244 9.55395L4.83261 9.55395L4.82277 9.55395L4.81292 9.55395L4.80307 9.55395L4.79321 9.55395L4.78334 9.55395L4.77346 9.55395L4.76358 9.55395L4.75369 9.55395L4.74379 9.55395C2.15353 9.55395 0.0523559 11.6538 0.0523555 14.244Z" stroke="url(#paint1_linear_611_245)" stroke-width="0.10471"/>
</g>
<defs>
<filter id="filter0_b_611_245" x="0.706645" y="-2.16445" width="12.9871" height="12.9871" filterUnits="userSpaceOnUse" color-interpolation-filters="sRGB">
<feFlood flood-opacity="0" result="BackgroundImageFix"/>
<feGaussianBlur in="BackgroundImageFix" stdDeviation="1.08222"/>
<feComposite in2="SourceAlpha" operator="in" result="effect1_backgroundBlur_611_245"/>
<feBlend mode="normal" in="SourceGraphic" in2="effect1_backgroundBlur_611_245" result="shape"/>
</filter>
<filter id="filter1_b_611_245" x="-2.3712" y="7.13076" width="18.969" height="13.0412" filterUnits="userSpaceOnUse" color-interpolation-filters="sRGB">
<feFlood flood-opacity="0" result="BackgroundImageFix"/>
<feGaussianBlur in="BackgroundImageFix" stdDeviation="1.1856"/>
<feComposite in2="SourceAlpha" operator="in" result="effect1_backgroundBlur_611_245"/>
<feBlend mode="normal" in="SourceGraphic" in2="effect1_backgroundBlur_611_245" result="shape"/>
</filter>
<linearGradient id="paint0_linear_611_245" x1="2.87109" y1="1.62334" x2="7.03089" y2="8.45529" gradientUnits="userSpaceOnUse">
<stop stop-color="white"/>
<stop offset="0.99715" stop-color="white" stop-opacity="0"/>
</linearGradient>
<linearGradient id="paint1_linear_611_245" x1="0.667006" y1="10.2395" x2="14.6957" y2="16.7233" gradientUnits="userSpaceOnUse">
<stop stop-color="white"/>
<stop offset="1" stop-color="white" stop-opacity="0"/>
</linearGradient>
</defs>
</svg>
