<svg width="48" height="48" viewBox="0 0 48 48" fill="none" xmlns="http://www.w3.org/2000/svg">
<path d="M19 29H9C8.73478 29 8.48043 29.1054 8.29289 29.2929C8.10536 29.4804 8 29.7348 8 30C8 30.2652 8.10536 30.5196 8.29289 30.7071C8.48043 30.8946 8.73478 31 9 31H19C19.2652 31 19.5196 30.8946 19.7071 30.7071C19.8946 30.5196 20 30.2652 20 30C20 29.7348 19.8946 29.4804 19.7071 29.2929C19.5196 29.1054 19.2652 29 19 29Z" fill="#D6B473"/>
<path d="M15 34H9C8.73478 34 8.48043 34.1054 8.29289 34.2929C8.10536 34.4804 8 34.7348 8 35C8 35.2652 8.10536 35.5196 8.29289 35.7071C8.48043 35.8946 8.73478 36 9 36H15C15.2652 36 15.5196 35.8946 15.7071 35.7071C15.8946 35.5196 16 35.2652 16 35C16 34.7348 15.8946 34.4804 15.7071 34.2929C15.5196 34.1054 15.2652 34 15 34Z" fill="#D6B473"/>
<path d="M45.4473 27.1055C44.3478 26.6485 43.1856 26.3601 42 26.25V4C41.9994 3.46975 41.7885 2.9614 41.4135 2.58646C41.0386 2.21152 40.5302 2.00061 40 2H4C3.46975 2.00061 2.9614 2.21152 2.58646 2.58646C2.21152 2.9614 2.00061 3.46975 2 4V40C2.00061 40.5302 2.21152 41.0386 2.58646 41.4135C2.9614 41.7885 3.46975 41.9994 4 42H30.5381C30.9662 42.7565 31.6293 43.3529 32.4268 43.6987L37.6068 45.9187C37.7311 45.9722 37.8651 45.9998 38.0004 45.9998C38.1357 45.9998 38.2697 45.9722 38.394 45.9187L43.5723 43.7C44.2934 43.3925 44.9081 42.8797 45.3398 42.2253C45.7715 41.5709 46.0011 40.8039 46 40.02V28C46 27.8143 45.9483 27.6322 45.8507 27.4742C45.7531 27.3163 45.6134 27.1886 45.4473 27.1055V27.1055ZM26.0059 16.9238L25.999 16.9189L23.25 14.7189C22.8961 14.4332 22.4549 14.2773 22 14.2773C21.5451 14.2773 21.1039 14.4332 20.75 14.7189L18 16.9189V4.0012L26 4.0018L26.0059 16.9238ZM4 4L16 4.001V16.9194C16.0001 17.2961 16.1066 17.6652 16.3073 17.9841C16.5079 18.303 16.7945 18.5587 17.1341 18.7219C17.4737 18.885 17.8524 18.949 18.2268 18.9064C18.6011 18.8638 18.9558 18.7163 19.25 18.481L22 16.281L24.75 18.481H24.751C25.0452 18.7162 25.3998 18.8636 25.774 18.9061C26.1483 18.9487 26.5269 18.8847 26.8664 18.7215C27.2059 18.5584 27.4924 18.3027 27.6929 17.9838C27.8935 17.665 27.9999 17.2961 28 16.9194V4.002L40 4.0029V26.0557C39.9241 26.0511 39.8412 26.0494 39.764 26.0457C39.6652 26.0406 39.564 26.0368 39.463 26.0327C38.9951 26.0131 38.5122 26 38 26C32.8232 26 30.6436 27.0605 30.5527 27.1055C30.3866 27.1886 30.2469 27.3163 30.1493 27.4742C30.0517 27.6322 30 27.8143 30 28V40H4V4ZM44 40.02C44.0007 40.4121 43.8859 40.7957 43.6701 41.1231C43.4542 41.4504 43.1468 41.707 42.7861 41.8608L38 43.9121L33.2158 41.8613C32.9583 41.7502 32.7271 41.5863 32.537 41.3801C32.3469 41.174 32.2022 40.9302 32.1123 40.6646C32.0383 40.4577 32.0003 40.2397 32 40.02V28.6958C33.9558 28.1747 35.9769 27.9403 38 28C38.9698 27.9946 39.9392 28.0399 40.9043 28.1357C41.9522 28.2203 42.9892 28.4084 44 28.6973V40.02Z" fill="#D6B473"/>
<path d="M36.6551 35.9304L35.3318 33.9457C35.1836 33.7277 34.9552 33.5771 34.6965 33.5266C34.4377 33.476 34.1695 33.5298 33.9502 33.676C33.7308 33.8222 33.5781 34.0492 33.5252 34.3075C33.4723 34.5657 33.5236 34.8344 33.6678 35.0551L35.6678 38.0551C35.7498 38.1782 35.8582 38.2815 35.985 38.3576C36.1118 38.4337 36.254 38.4807 36.4012 38.4951C36.434 38.4985 36.4669 38.5003 36.4998 38.5004C36.765 38.5004 37.0193 38.395 37.2068 38.2074L42.2068 33.2074C42.389 33.0188 42.4898 32.7662 42.4875 32.504C42.4852 32.2418 42.38 31.991 42.1946 31.8056C42.0092 31.6202 41.7584 31.515 41.4962 31.5127C41.234 31.5105 40.9814 31.6112 40.7928 31.7934L36.6551 35.9304Z" fill="#D6B473"/>
</svg>
